<svg width="1088" height="1088" viewBox="0 0 1088 1088" fill="none" xmlns="http://www.w3.org/2000/svg">
<mask id="mask0_626_38422" style="mask-type:alpha" maskUnits="userSpaceOnUse" x="174" y="175" width="739" height="739">
<circle cx="368.938" cy="368.938" r="368.938" transform="matrix(-0.457461 0.88923 0.88923 0.457461 384.485 47.6567)" fill="white"/>
</mask>
<g mask="url(#mask0_626_38422)">
<g filter="url(#filter0_f_626_38422)">
<circle cx="368.938" cy="368.938" r="368.938" transform="matrix(-0.457461 0.88923 0.88923 0.457461 384.485 47.6567)" fill="url(#paint0_radial_626_38422)" fill-opacity="0.8"/>
<circle cx="368.938" cy="368.938" r="368.938" transform="matrix(-0.457461 0.88923 0.88923 0.457461 384.485 47.6567)" stroke="url(#paint1_linear_626_38422)"/>
</g>
</g>
<path d="M244.951 327.693C250.006 320.43 253.198 316.475 259.94 308.222L260.043 308.289L259.94 308.222C265.874 301.093 268.623 297.867 273.976 292.248C279.178 286.469 281.782 283.915 288.542 277.385L288.589 277.416L288.542 277.385C294.244 271.921 296.788 269.516 302.472 264.728C308.043 259.753 310.412 257.891 316.732 252.943L316.754 252.958L316.732 252.943C322.792 248.212 324.979 246.525 330.663 242.613C336.366 238.454 338.676 236.971 344.843 233.014C350.944 229.103 353 227.784 359.034 224.393C364.911 220.883 367.235 219.666 373.453 216.425C379.671 213.184 381.958 211.985 388.19 209.18C394.387 206.187 396.621 205.271 403.285 202.508C409.953 199.753 412.45 198.721 419.061 196.44C425.441 194.041 428.03 193.22 435.254 190.983C442.718 188.682 445.513 187.818 452.676 186.099C459.391 184.277 462.607 183.582 470.044 182.062L470.874 181.892C479.137 180.232 482.57 179.542 490.472 178.517C497.939 177.31 501.973 176.875 510.842 176.072L510.85 176.172L510.842 176.072C519.935 175.301 524.627 174.929 531.649 174.793L532.178 174.782C533.714 174.738 535.288 174.692 536.831 174.677C543.768 174.439 548.906 174.561 558.185 174.869L558.182 175.05L558.191 174.868C570.582 175.468 576.964 175.851 586.048 177.019C594.712 177.888 601.467 178.982 613.298 181.086L613.252 181.349L613.307 181.087C624.102 183.341 631.783 185.032 639.079 186.969L639.098 186.939C639.626 187.074 640.153 187.218 640.677 187.36L640.978 187.442C643.046 187.993 645.247 188.652 647.732 189.396C653.75 191.117 659.848 193.099 668.762 196.232C670.599 196.848 672.486 197.517 674.383 198.218L674.767 198.342L676.184 198.882C697.35 207.644 707.418 212.3 719.147 218.725C720.873 219.665 722.683 220.669 724.597 221.746L724.728 221.544L726.34 222.451L726.769 222.73C729.166 224.106 731.468 225.493 733.617 226.89L734.024 227.155C736.931 228.862 740.004 230.682 743.43 232.748L743.282 232.975L743.43 232.748L744.49 233.437C749.389 236.622 754.245 239.945 758.902 243.327C759.737 243.905 760.572 244.493 761.407 245.091L761.378 245.135C762.536 245.987 763.683 246.837 764.82 247.696L764.875 247.612L765.201 247.85L765.95 248.399L766.421 248.758L767.471 249.55L767.399 249.66C770.945 252.382 774.434 255.177 777.942 258.079C783.929 262.905 789.634 267.813 795.255 272.985L795.302 272.912L796.602 274.122C797.676 275.127 798.795 276.215 800.117 277.544C803.767 281.028 807.173 284.416 810.539 287.898L810.351 288.083L810.547 287.908C826.634 305.727 836.599 317.772 844.896 329.446C846.238 331.321 847.609 333.297 848.966 335.295L849.188 335.611L849.464 335.989L850.649 337.745L851.254 338.66L851.27 338.635L852.227 340.076C853.251 341.623 854.298 343.311 855.452 345.25C860.564 353.534 866.221 363.41 873.748 377.271L873.485 377.418L873.758 377.288C880.632 391.277 883.754 398.023 887.463 407.91C891.817 418.289 894.175 425.56 898.516 439.677L898.332 439.735L898.514 439.686C899.071 441.728 899.589 443.651 900.082 445.484C900.767 447.818 901.42 450.183 902.037 452.493L902.19 452.995L902.681 454.952L902.57 454.979C904.51 462.667 905.828 468.626 906.949 474.765C908.483 482.325 909.588 489.429 910.901 500.361L911.015 500.347L911.224 502.047C911.4 503.581 911.553 505.256 911.698 507.145C911.842 508.527 912.017 509.96 912.18 511.475L911.97 511.5L912.18 511.491C913.249 528.473 913.588 538.214 913.471 547.455C913.459 551.486 913.363 555.357 913.157 559.615C913.076 563.006 912.908 566.418 912.684 569.788L912.602 570.893L912.55 571.59L912.396 571.579C912.099 575.502 911.717 580.006 911.253 585.375L910.867 585.343L911.248 585.398L910.989 587.217L911.047 587.224L910.821 589.08C910.354 592.825 909.7 596.808 908.876 600.9C907.396 610.215 905.94 618.377 903.65 627.927C902.344 633.458 900.859 639.04 898.672 646.602C897.92 649.243 897.112 652.02 896.207 655.073C895.768 656.744 895.268 658.428 894.636 660.354L894.511 660.795L894.322 661.334C893.919 662.533 893.453 663.899 892.801 665.761C892.801 665.761 892.69 666.1 892.655 666.187L892.203 667.459L892.126 667.434C890.834 670.961 889.581 674.294 888.349 677.473L888.437 677.531L887.681 679.496C886.972 681.268 886.176 683.151 885.183 685.416C882.44 692.043 879.691 698.19 876.753 704.179C872.239 713.53 866.948 723.274 860.105 734.852C860.012 734.995 859.919 735.138 859.844 735.293C859.77 735.448 859.692 735.527 859.606 735.659C859.508 735.81 859.408 735.964 859.329 736.126L858.948 736.76C858.709 737.127 858.525 737.482 858.315 737.83L857.927 738.507L857.689 738.873C857.584 739.035 857.477 739.2 857.365 739.372L857.236 739.57C857.236 739.57 856.969 739.981 856.907 740.076C851.339 748.842 848.376 753.384 843.364 760.106C838.4 767.229 835.228 771.161 828.527 779.367C822.59 786.5 819.837 789.724 814.488 795.345C809.286 801.124 806.682 803.678 799.925 810.204L799.873 810.171L799.925 810.204C794.246 815.642 791.716 818.04 786.009 822.808C780.441 827.785 778.068 829.645 771.752 834.595L771.73 834.581C765.671 839.318 763.48 841.003 757.797 844.914C752.099 849.072 749.84 850.525 743.805 854.401L743.626 854.515C737.523 858.43 735.466 859.748 729.437 863.132C723.556 866.65 721.228 867.864 715.014 871.107C708.8 874.351 706.511 875.544 700.28 878.348C694.082 881.341 691.848 882.258 685.179 885.022C678.514 887.779 676.013 888.809 669.402 891.09C663.023 893.495 660.434 894.316 653.21 896.553C645.74 898.855 642.948 899.716 635.779 901.436C629.028 903.266 625.954 903.918 618.157 905.527L617.305 905.698C609.217 907.321 605.867 907.997 597.965 909.021C590.497 910.229 586.445 910.652 577.595 911.466L577.583 911.365L577.591 911.464C568.495 912.239 563.803 912.611 556.774 912.742L556.266 912.761C555.611 912.774 554.939 912.781 554.236 912.787C545.818 913.137 540.715 913.034 530.254 912.691L530.26 912.513L530.248 912.693C517.86 912.095 511.48 911.709 502.399 910.543C493.726 909.672 486.979 908.583 475.144 906.477L475.186 906.212L475.131 906.474C466.034 904.577 458.627 902.971 451.983 901.275L451.489 901.152L450.772 900.978L450.581 900.927L450.027 900.792L449.338 900.625L447.457 900.123L447.481 900.086C446.095 899.707 444.712 899.329 443.333 898.907C435.212 896.675 427.616 894.194 413.329 889.08L411.866 888.52C407.834 886.979 403.738 885.239 399.702 883.367C387.441 878.104 379.217 874.182 370.388 869.387C369.241 868.824 367.886 868.157 366.548 867.454C365.483 866.918 364.59 866.453 363.771 866.003L362.184 865.107L362.317 864.902C357.475 862.15 351.904 858.884 345.082 854.804L345.23 854.576L345.082 854.804L344.03 854.12C336.468 849.204 329.262 844.134 322.257 838.787L322.191 838.89L320.695 837.756C317.04 834.968 313.298 831.904 309.575 828.675C305.893 825.681 302.139 822.5 298.438 819.228C296.656 817.741 294.91 816.205 293.243 814.661L291.943 813.451L291.978 813.396C287.265 809.018 282.661 804.496 278.011 799.684L278.196 799.496L278.003 799.673C261.867 781.817 251.904 769.769 243.603 758.086C241.965 755.79 240.342 753.473 238.757 751.096L237.59 749.367L236.316 747.444C233.859 743.687 231.457 739.783 229.167 735.826C225.055 728.917 220.48 720.789 214.737 710.274L215.038 710.109L214.727 710.257C207.144 694.46 203.417 686.038 199.966 676.893L199.546 675.837C198.778 673.986 198.169 672.443 197.625 670.968L197.033 669.352L197.074 669.337C194.195 661.439 191.596 653.078 188.14 641.462L188.428 641.372L188.134 641.447C187.432 638.674 186.81 636.173 186.261 633.896L186.155 633.921L185.669 631.973C185.577 631.61 185.492 631.242 185.406 630.878L185.31 630.471L185.421 630.444L184.435 626.344L184.359 626.357C184.076 625.083 183.791 623.724 183.43 621.951C182.161 616.264 181.181 611.271 180.353 606.23C179.506 601.626 178.815 597.16 178.177 592.186C177.871 590.249 177.65 588.639 177.467 587.107L177.258 585.406L177.366 585.393C176.893 581.089 176.39 576.004 175.766 569.396L176.101 569.363L175.765 569.374C175.022 552.588 174.855 542.855 175.145 533.46C175.251 528.385 175.506 523.323 175.953 517.443L175.809 517.432L175.955 515.602L176.051 514.58C176.209 512.595 176.411 510.608 176.631 508.696L176.856 506.401C176.921 505.562 177.011 504.702 177.101 503.873L177.211 502.901L177.302 502.914L177.458 501.356L177.365 501.348L177.413 500.857C177.431 500.66 177.449 500.464 177.474 500.266L177.681 498.543L177.749 498.551L178.089 495.355L178.476 495.393L178.096 495.328C178.77 491.306 179.369 487.752 179.938 484.469C182.162 471.668 183.924 462.625 186.866 451.526L187.713 451.748C185.496 460.183 183.715 468.452 181.558 480.373C183.555 472.134 186.018 464.014 188.936 456.054C189.405 450.175 190.242 444.332 191.441 438.558C190.252 442.522 189.231 446.083 188.32 449.419L187.477 449.19C188.42 445.718 189.494 441.987 190.757 437.789C192.21 432.954 193.973 427.313 196.132 420.557L196.114 420.545L196.601 419.177C197.056 417.907 197.522 416.645 198.013 415.4C198.58 413.822 199.184 412.211 199.809 410.615L200.012 410.094L200.58 408.643L200.624 408.671C204.667 398.44 208.808 389.237 213.448 380.036C218.46 369.798 224.116 359.566 230.735 348.766L231.39 347.758L231.693 347.292C237.112 338.764 240.15 334.155 244.951 327.693ZM260.615 308.781C255.012 315.979 250.98 321.194 247.81 325.341C246.453 327.241 245.136 329.141 243.859 331.041C250.882 323.075 258.795 315.94 267.443 309.777C273.241 300.601 279.751 291.895 286.914 283.741C281.682 287.003 276.846 290.862 272.505 295.241C269.567 298.548 265.814 302.838 260.615 308.781ZM248.766 390.501C246.99 383.036 246.342 375.347 246.844 367.69C234.571 380.283 223.554 394.043 213.95 408.773C213.184 418.541 213.899 428.368 216.072 437.922C225.588 421.206 236.527 405.34 248.766 390.501ZM436.253 205.738C428.103 207.471 420.066 209.695 412.186 212.4C410.228 218.895 408.952 227.174 408.387 237.006C412.485 235.624 416.661 234.487 420.894 233.602C425.402 222.718 430.56 213.347 436.253 205.738ZM820.581 635.214C827.138 650.88 832.211 666.099 835.67 680.472C850.205 664.18 862.967 647.31 873.65 630.346C870.909 615.11 866.335 599.282 860.049 583.296C848.947 600.88 835.669 618.343 820.581 635.214ZM433.121 233.491C429.196 233.749 425.293 234.269 421.437 235.045C416.998 245.838 413.133 258.252 409.934 272C417.059 257.741 424.854 244.811 433.121 233.491ZM359.898 268.358C346.182 267.653 333.373 268.409 321.817 270.601C316.725 276.264 312.09 282.321 307.954 288.716C321.748 283.692 336.854 279.979 352.885 277.677C354.976 274.393 357.321 271.277 359.898 268.358ZM352.192 278.823C336.044 281.242 320.837 285.093 306.991 290.271C303.356 296.053 300.299 302.178 297.862 308.558C313.806 300.23 330.48 293.383 347.676 288.105C348.882 284.874 350.395 281.766 352.192 278.823ZM297.301 310.103C295.313 315.623 294.008 321.366 293.415 327.203C309.906 315.998 327.306 306.194 345.434 297.895C345.703 294.974 346.317 292.095 347.263 289.318C330.005 294.693 313.28 301.651 297.301 310.103ZM760.3 531.619C772.216 547.719 783.299 564.421 793.504 581.657C808.614 564.738 821.891 547.227 832.985 529.591C822.585 512.753 811.051 496.643 798.463 481.372C787.159 499.151 774.394 515.958 760.3 531.619ZM719.379 481.317C733.554 497.23 746.896 513.572 759.002 529.867C773.566 513.563 786.367 496.688 797.058 479.697C783.881 463.857 769.783 448.806 754.836 434.622C744.333 451.144 732.473 466.762 719.379 481.317ZM404.904 279.785C390.895 293.669 377.841 308.484 365.831 324.129C368.855 325.202 371.981 325.963 375.159 326.4C384.027 310.218 393.964 294.645 404.904 279.785ZM402.348 276.824C384.44 279.426 366.753 283.374 349.439 288.635C348.487 291.317 347.848 294.101 347.537 296.93C365.305 288.927 383.623 282.207 402.35 276.82L402.348 276.824ZM347.442 298.079C347.265 300.587 347.445 303.108 347.974 305.567C365.286 295.116 383.297 285.869 401.879 277.891C383.276 283.313 365.085 290.058 347.445 298.075L347.442 298.079ZM403.308 275.789C386.944 275.383 370.574 276.294 354.356 278.513C352.588 281.344 351.089 284.334 349.879 287.445C367.369 282.211 385.23 278.313 403.31 275.785L403.308 275.789ZM348.225 306.585C348.837 308.888 349.802 311.082 351.087 313.089C367.263 300.542 384.263 289.094 401.972 278.823C383.443 286.837 365.485 296.113 348.225 306.585ZM363.447 325.542C361.308 324.695 359.257 323.641 357.323 322.396C356.861 322.095 356.395 321.792 355.964 321.46C340.41 337.103 325.987 353.829 312.803 371.515C313.699 372.175 314.629 372.822 315.576 373.437C319.418 375.908 323.503 377.979 327.768 379.616C338.425 360.805 350.345 342.739 363.447 325.542ZM622.973 389.916C639.616 403.276 655.95 417.489 671.541 432.178C683.152 419.267 693.668 405.411 702.978 390.753C691.566 382.155 679.659 373.82 667.59 365.974C661.723 362.16 655.677 358.371 649.663 354.743C641.752 367.188 632.824 378.955 622.968 389.924L622.973 389.916ZM373.502 385.703C381.64 385.242 389.736 384.201 397.726 382.586C397.783 363.238 398.657 344.665 400.288 327.341C396.219 328.148 392.099 328.67 387.957 328.903C382.065 347.55 377.237 366.516 373.497 385.71L373.502 385.703ZM386.807 328.954C384.854 329.03 382.916 329.033 381.036 328.964C379.047 328.886 377.094 328.728 375.222 328.486C365.398 346.727 356.749 365.575 349.326 384.918C352.875 385.373 356.588 385.679 360.364 385.833C364.14 385.987 368.175 385.96 372.178 385.781C375.973 366.58 380.855 347.609 386.803 328.961L386.807 328.954ZM708.25 578.607C697.02 561.463 684.828 544.016 672.045 526.765C655.586 540.418 638.311 553.056 620.316 564.608C631.557 583.012 642.449 601.398 652.698 619.266C672.024 606.855 690.576 593.277 708.25 578.607ZM653.746 621.153C664.168 639.363 674.075 657.291 683.154 674.414C703.224 661.533 722.49 647.441 740.845 632.215C731.405 615.342 720.844 597.922 709.439 580.429C691.721 595.125 673.122 608.725 653.746 621.153ZM516.133 318.282C531.097 326.392 546.305 335.459 561.341 345.233C563.676 346.752 566.053 348.297 568.381 349.868C576.022 341.367 582.947 332.25 589.085 322.609C569.99 313.788 550.421 306.029 530.469 299.367C526.213 306.051 521.418 312.377 516.133 318.282ZM462.147 292.645C479.943 299.911 497.336 308.129 514.248 317.265C519.456 311.463 524.181 305.246 528.378 298.675C509.021 292.297 489.287 287.125 469.289 283.191C467.156 286.523 464.765 289.682 462.136 292.637L462.147 292.645ZM509.95 399.031C520.465 392.276 530.564 384.894 540.191 376.924C525.431 362.842 510.626 349.576 496.168 337.47C489.48 343.005 482.467 348.136 475.167 352.834C486.417 367.268 498.116 382.808 509.939 399.024L509.95 399.031ZM474.046 353.556C466.576 358.299 458.843 362.617 450.886 366.488C458.568 382.959 466.804 400.432 475.348 418.465C486.788 412.892 497.903 406.675 508.64 399.844C496.875 383.593 485.242 368.007 474.035 353.548L474.046 353.556ZM511.192 400.741C522.918 416.857 534.901 433.823 546.81 451.175C560.284 442.534 573.222 433.084 585.552 422.876C571.108 407.377 556.369 392.428 541.749 378.412C532.017 386.459 521.809 393.913 511.181 400.734L511.192 400.741ZM548.044 452.968C559.931 470.321 571.866 488.226 583.526 506.203C599.493 495.955 614.822 484.746 629.428 472.637C615.689 456.173 601.424 439.966 587.022 424.458C574.618 434.741 561.601 444.262 548.044 452.968ZM546.602 453.893C532.761 462.703 518.428 470.714 503.672 477.888C512.748 496.83 522.078 516.183 531.418 535.464C548.787 527.013 565.657 517.574 581.947 507.196C570.319 489.187 558.426 471.257 546.588 453.884L546.602 453.893ZM545.38 452.097C533.513 434.721 521.581 417.725 509.892 401.56C499.049 408.47 487.821 414.757 476.262 420.39C484.772 438.349 493.659 457.027 502.744 475.954C517.393 468.816 531.624 460.847 545.366 452.088L545.38 452.097ZM474.886 421.055C463.325 426.621 451.453 431.516 439.328 435.715C444.412 455.067 450.065 475.102 456.143 495.284C471.507 489.952 486.55 483.739 501.199 476.677C492.188 457.756 483.331 439.04 474.886 421.055ZM473.995 419.151C465.502 401.078 457.334 383.566 449.707 367.089C441.753 370.913 433.588 374.283 425.252 377.182C429.156 395.188 433.717 414.189 438.805 433.68C450.799 429.511 462.543 424.657 473.98 419.141L473.995 419.151ZM423.993 377.61C415.822 380.401 407.486 382.681 399.032 384.437C399.078 403.514 399.887 423.551 401.439 444.019C413.611 441.488 425.612 438.2 437.373 434.173C432.327 414.658 427.824 395.631 423.978 377.601L423.993 377.61ZM423.572 375.61C419.709 357.349 416.475 339.893 413.954 323.709C409.847 325.1 405.66 326.242 401.416 327.13C399.844 344.435 399.042 363.002 399.029 382.338C407.34 380.601 415.535 378.353 423.568 375.607L423.572 375.61ZM424.821 375.18C433.016 372.325 441.042 369.008 448.861 365.245C441.135 348.537 433.891 332.731 427.329 318.261C423.323 320.18 419.214 321.875 415.019 323.338C417.583 339.497 420.871 356.941 424.816 375.156L424.821 375.18ZM450.052 364.673C457.867 360.86 465.462 356.612 472.801 351.948C461.448 337.311 450.398 323.622 439.98 311.263C436.219 313.645 432.331 315.819 428.333 317.776C434.947 332.223 442.253 347.996 450.037 364.664L450.052 364.673ZM473.917 351.234C481.097 346.616 487.996 341.575 494.577 336.138C479.894 323.912 465.397 312.74 451.474 302.932C448.107 305.716 444.58 308.301 440.911 310.673C451.388 322.967 462.482 336.611 473.893 351.239L473.917 351.234ZM495.594 335.287C501.899 330.012 507.839 324.317 513.374 318.241C496.501 309.068 479.147 300.809 461.387 293.501C458.565 296.594 455.545 299.5 452.346 302.2C466.304 311.963 480.851 323.089 495.58 335.277L495.594 335.287ZM497.198 336.616C511.704 348.681 526.556 361.915 541.358 375.956C550.596 368.236 559.294 359.892 567.39 350.982C564.556 349.082 561.688 347.186 558.854 345.343C544.35 335.915 529.682 327.141 515.256 319.271C509.631 325.452 503.593 331.243 497.183 336.607L497.198 336.616ZM542.899 377.422C557.57 391.399 572.344 406.319 586.828 421.78C598.661 411.889 609.798 401.192 620.159 389.767C603.486 376.398 586.337 363.752 569.176 352.168C561.006 361.178 552.226 369.616 542.899 377.422ZM588.305 423.367C602.759 438.851 617.047 455.015 630.821 471.456C644.856 459.732 658.064 447.052 670.349 433.506C654.786 418.782 638.48 404.535 621.874 391.142C611.437 402.642 600.221 413.409 588.305 423.367ZM584.719 508.059C596.443 526.177 608.021 544.56 619.123 562.711C637.07 551.195 654.298 538.594 670.712 524.98C658.037 507.987 644.638 490.929 630.838 474.336C616.163 486.502 600.762 497.763 584.719 508.059ZM618.616 565.674C600.25 577.377 581.228 588.017 561.643 597.541C571.136 616.932 580.584 636.127 589.748 654.62C610.779 644.385 631.205 632.953 650.926 620.379C640.693 602.494 629.832 584.077 618.616 565.674ZM617.459 563.779C606.37 545.615 594.839 527.2 583.152 509.064C566.786 519.493 549.835 528.975 532.383 537.463C541.81 556.916 551.322 576.454 560.667 595.551C580.191 586.056 599.152 575.448 617.459 563.779ZM530.7 538.279C513.258 546.695 495.343 554.093 477.045 560.435C483.995 580.865 491.33 601.304 498.85 621.202C519.322 614.108 539.365 605.832 558.878 596.417C549.526 577.259 540.059 557.692 530.7 538.279ZM529.738 536.276C520.437 516.974 511.15 497.586 502.127 478.637C487.382 485.75 472.237 492.003 456.768 497.364C462.873 517.505 469.455 538.035 476.327 558.33C494.541 552.016 512.375 544.652 529.738 536.276ZM455.175 497.92C440.017 503.11 424.547 507.341 408.857 510.588C411.907 531.576 415.682 552.863 420.054 573.855C438.539 570.029 456.765 565.044 474.623 558.928C467.747 538.609 461.214 518.091 455.175 497.92ZM454.554 495.842C448.527 475.646 442.924 455.592 437.899 436.221C426.015 440.279 413.888 443.591 401.591 446.137C403.171 466.466 405.512 487.405 408.529 508.429C424.115 505.198 439.484 500.992 454.543 495.835L454.554 495.842ZM400.125 446.451C388.3 448.844 376.318 450.379 364.272 451.044C362.406 471.81 361.452 493.189 361.435 514.609C376.714 513.769 391.911 511.818 406.907 508.773C403.924 487.729 401.644 466.768 400.114 446.444L400.125 446.451ZM399.952 444.309C398.458 423.832 397.705 403.78 397.72 384.69C389.593 386.325 381.359 387.376 373.081 387.835C369.303 407.409 366.39 427.948 364.463 448.873C376.387 448.209 388.248 446.684 399.952 444.309ZM413.649 321.795C411.272 306.279 409.532 291.75 408.466 278.543C405.317 293.925 403.023 309.47 401.594 325.107C405.674 324.242 409.7 323.136 413.649 321.795ZM414.698 321.433C418.729 320.02 422.679 318.388 426.531 316.543C420.214 302.602 414.434 289.674 409.318 278.068C410.446 291.291 412.25 305.866 414.7 321.429L414.698 321.433ZM427.527 316.063C431.374 314.175 435.115 312.079 438.734 309.785C428.669 297.895 419.061 287.083 410.117 277.649C415.279 289.201 421.131 302.108 427.529 316.059L427.527 316.063ZM439.663 309.199C443.19 306.924 446.583 304.448 449.826 301.783C444.967 298.384 440.108 295.105 435.377 292.03C427.06 286.623 418.863 281.665 410.974 277.277C419.949 286.664 429.584 297.394 439.665 309.195L439.663 309.199ZM437.68 292.307C441.949 295.082 446.326 298.026 450.694 301.058C453.783 298.467 456.7 295.677 459.425 292.706C443.95 286.413 428.094 281.101 411.951 276.801C420.266 281.393 428.907 286.598 437.683 292.303L437.68 292.307ZM460.191 291.858C462.73 289.021 465.047 285.993 467.122 282.8C449.232 279.364 431.13 277.139 412.94 276.14C429.001 280.394 444.783 285.642 460.193 291.854L460.191 291.858ZM467.782 281.721C469.574 278.839 471.085 275.791 472.295 272.62C452.82 272.193 433.338 273.087 413.984 275.295C432.04 276.243 450.013 278.389 467.784 281.718L467.782 281.721ZM414.953 274.287C434.11 272.103 453.391 271.201 472.668 271.589C473.627 268.87 474.258 266.045 474.548 263.176C454.458 265.541 434.549 269.252 414.955 274.283L414.953 274.287ZM474.63 262.144C474.799 259.616 474.607 257.077 474.058 254.604C454.132 259.495 434.558 265.723 415.468 273.245C434.921 268.231 454.686 264.521 474.632 262.14L474.63 262.144ZM474.92 271.64C496.318 272.184 517.655 274.158 538.789 277.549C540.791 271.943 542.079 266.108 542.624 260.181C520.65 259.551 498.659 260.465 476.814 262.917C476.529 265.887 475.894 268.814 474.923 271.636L474.92 271.64ZM474.551 272.673C473.324 275.966 471.778 279.132 469.935 282.125C489.974 285.986 509.754 291.087 529.16 297.4C532.854 291.495 535.942 285.231 538.376 278.705C517.26 275.273 495.939 273.256 474.554 272.669L474.551 272.673ZM531.256 298.084C551.248 304.671 570.86 312.361 590.002 321.118C595.428 312.454 599.953 303.257 603.505 293.67C582.855 287.498 561.841 282.62 540.584 279.065C538.123 285.701 534.999 292.072 531.258 298.08L531.256 298.084ZM591.995 322.033C611.441 331.015 630.409 340.998 648.822 351.943C656.128 340.134 661.943 328.3 666.119 316.757C646.423 308.057 626.218 300.562 605.614 294.311C602.031 303.99 597.468 313.278 591.997 322.029L591.995 322.033ZM591.067 323.517C584.873 333.257 577.884 342.469 570.173 351.059C587.374 362.606 604.555 375.21 621.263 388.543C631.053 377.654 639.922 365.97 647.779 353.612C629.405 342.61 610.474 332.568 591.062 323.524L591.067 323.517ZM632.245 473.159C646.075 489.73 659.521 506.739 672.215 523.735C687.988 510.555 702.832 496.302 716.641 481.076C702.608 465.37 687.576 449.885 671.967 435.038C659.621 448.645 646.348 461.383 632.245 473.159ZM673.54 525.509C686.357 542.747 698.567 560.173 709.805 577.297C726.808 563.105 742.805 547.749 757.68 531.34C745.592 515.025 732.289 498.662 718.113 482.727C704.258 497.997 689.365 512.292 673.54 525.509ZM711.006 579.126C722.426 596.604 733.003 614.007 742.454 630.871C760.098 616.136 776.697 600.194 792.131 583.159C781.945 565.911 770.882 549.196 758.985 533.08C744.074 549.518 728.043 564.904 711.006 579.126ZM684.139 676.245C688.738 684.973 693.197 693.61 697.448 701.956C701.7 710.302 705.657 718.404 709.361 726.164C729.439 713.274 748.713 699.17 767.073 683.931C763.504 676.003 759.555 667.754 755.356 659.422C751.158 651.09 746.624 642.576 741.874 634.026C723.504 649.258 704.224 663.357 684.139 676.245ZM695.627 703.015C691.428 694.709 686.966 686.085 682.369 677.379C661.878 690.436 640.655 702.307 618.804 712.933C623.239 721.768 627.613 730.455 631.809 738.759C636.004 747.064 640.131 755.193 644.034 762.879C665.882 752.256 687.101 740.386 707.587 727.328C703.85 719.53 699.825 711.357 695.616 703.034L695.627 703.015ZM681.389 675.532C672.309 658.402 662.436 640.486 652.019 622.252C632.256 634.847 611.787 646.297 590.713 656.547C600.026 675.356 609.164 693.697 617.872 711.07C639.703 700.455 660.906 688.595 681.377 675.55L681.389 675.532ZM588.828 657.465C567.767 667.626 546.135 676.556 524.04 684.211C532.2 703.518 540.537 722.183 548.822 739.709C571.722 731.788 594.141 722.541 615.967 712.017C607.263 694.663 598.143 676.318 588.828 657.465ZM587.866 655.51C578.72 636.981 569.305 617.766 559.851 598.411C540.278 607.858 520.173 616.159 499.637 623.274C507.282 643.43 515.204 663.255 523.182 682.208C545.244 674.572 566.843 665.658 587.87 655.512L587.866 655.51ZM497.78 623.908C477.652 630.811 457.108 636.436 436.27 640.749C442.025 661.419 448.388 681.67 455.184 700.957C477.568 696.33 499.637 690.289 521.258 682.872C513.29 663.904 505.397 644.066 497.784 623.91L497.78 623.908ZM496.999 621.835C489.508 601.925 482.211 581.474 475.296 561.03C457.36 567.178 439.055 572.19 420.488 576.036C424.935 597.154 430.044 618.202 435.686 638.606C456.457 634.311 476.937 628.711 497.003 621.837L496.999 621.835ZM418.711 576.394C400.847 580.024 382.742 582.344 364.539 583.335C366.508 604.768 369.42 626.104 373.189 646.757C393.554 645.65 413.81 643.058 433.797 639C428.196 618.582 423.123 597.526 418.715 576.396L418.711 576.394ZM418.259 574.216C413.925 553.213 410.197 531.936 407.196 510.928C392.097 513.987 376.796 515.945 361.413 516.786C361.464 538.166 362.446 559.808 364.339 581.124C382.458 580.14 400.481 577.832 418.263 574.219L418.259 574.216ZM359.758 516.884C352.262 517.228 344.827 517.262 337.643 516.989C330.459 516.717 323.302 516.123 316.523 515.227C313.731 536.472 312.098 557.853 311.629 579.276C319.608 580.331 327.981 581.037 336.511 581.366C345.041 581.694 353.725 581.642 362.545 581.235C360.713 559.897 359.775 538.253 359.771 516.872L359.758 516.884ZM337.769 514.797C344.901 515.061 352.308 515.03 359.753 514.684C359.813 493.261 360.82 471.874 362.743 451.109C356.89 451.373 351.08 451.395 345.476 451.189C339.789 450.972 334.215 450.51 328.896 449.801C323.72 470.644 319.687 491.755 316.814 513.038C323.55 513.927 330.598 514.512 337.786 514.787L337.769 514.797ZM345.742 449.03C351.34 449.247 357.106 449.203 362.955 448.946C364.957 428.018 367.916 407.489 371.759 387.894C367.771 388.066 363.81 388.084 359.973 387.937C356.052 387.788 352.2 387.47 348.529 386.987C341.004 406.825 334.629 427.081 329.436 447.654C334.678 448.354 340.162 448.809 345.753 449.021L345.742 449.03ZM347.264 386.822C340.621 385.911 334.096 384.292 327.798 381.993C317.254 400.892 307.933 420.448 299.891 440.539C308.992 443.868 318.429 446.196 328.034 447.483C333.271 426.909 339.691 406.655 347.264 386.822ZM348.089 384.75C355.56 365.411 364.256 346.568 374.125 328.336C370.838 327.864 367.608 327.056 364.486 325.926C351.424 343.132 339.545 361.206 328.933 380.023C335.126 382.272 341.542 383.853 348.071 384.738L348.089 384.75ZM355.171 320.835C353.151 319.262 351.372 317.402 349.89 315.315C332.627 328.923 316.397 343.793 301.334 359.802C304.258 364.009 307.821 367.734 311.895 370.841C325.111 353.172 339.563 336.462 355.143 320.838L355.171 320.835ZM351.682 313.924C353.111 315.935 354.829 317.723 356.781 319.232C371.146 304.987 386.443 291.716 402.572 279.505C384.845 289.822 367.834 301.322 351.654 313.927L351.682 313.924ZM357.597 319.856C357.978 320.135 358.373 320.402 358.773 320.662C360.689 321.895 362.724 322.932 364.848 323.756C376.777 308.271 389.727 293.6 403.611 279.841C387.385 292.129 372.003 305.493 357.569 319.843L357.597 319.856ZM376.301 326.553C378.002 326.762 379.774 326.901 381.581 326.97C383.496 327.041 385.477 327.035 387.476 326.947C392.725 310.713 399.009 294.832 406.29 279.403C395.232 294.42 385.206 310.17 376.281 326.545L376.301 326.553ZM388.609 326.88C392.599 326.637 396.567 326.121 400.485 325.335C401.961 309.783 404.29 294.324 407.463 279.027C400.149 294.555 393.849 310.539 388.603 326.882L388.609 326.88ZM455.956 236.122C452.973 235.09 449.894 234.357 446.766 233.936C434.391 245.449 422.944 257.922 412.532 271.237C426.112 258.47 440.625 246.733 455.95 236.124L455.956 236.122ZM413.852 271.198C429.919 259.738 446.776 249.428 464.297 240.345C463.967 240.13 463.647 239.891 463.314 239.674C461.358 238.417 459.279 237.365 457.108 236.532C441.855 247.006 427.4 258.597 413.86 271.208L413.852 271.198ZM414.861 271.572C432.744 261.887 451.266 253.432 470.298 246.265C468.86 244.278 467.14 242.512 465.193 241.021C447.721 250.014 430.905 260.226 414.869 271.583L414.861 271.572ZM415.434 272.294C434.45 264.776 453.947 258.537 473.796 253.62C473.169 251.321 472.189 249.133 470.89 247.135C451.851 254.25 433.319 262.655 415.425 272.293L415.434 272.294ZM476.011 253.077C497.444 247.89 519.228 244.279 541.188 242.272C539.922 237.485 537.88 232.938 535.143 228.811C514.019 233.047 493.252 238.908 473.03 246.34C474.36 248.421 475.365 250.693 476.011 253.077ZM476.26 254.058C476.834 256.621 477.045 259.252 476.887 261.874C498.736 259.385 520.732 258.43 542.715 259.014C543.088 253.773 542.668 248.505 541.469 243.388C519.501 245.346 497.706 248.913 476.26 254.058ZM544.962 259.072C566.66 259.76 588.285 261.921 609.689 265.539C610.249 257.822 609.624 250.064 607.834 242.536C586.473 241.183 565.041 241.4 543.712 243.188C544.914 248.394 545.334 253.75 544.958 259.079L544.962 259.072ZM544.875 260.241C544.324 266.265 543.023 272.196 541.003 277.898C562.273 281.408 583.303 286.244 603.97 292.376C606.925 284.131 608.816 275.543 609.597 266.82C588.196 263.163 566.57 260.968 544.871 260.249L544.875 260.241ZM606.083 293.003C626.698 299.214 646.917 306.67 666.629 315.33C670.552 304.144 672.973 293.125 673.837 282.574C653.522 276.052 632.786 270.922 611.772 267.222C610.973 276.024 609.06 284.69 606.078 293.011L606.083 293.003ZM668.636 316.223C688.067 324.852 706.947 334.67 725.169 345.623C729.826 332.353 732.69 319.279 733.688 306.75C715.003 297.557 695.691 289.699 675.896 283.235C675.037 293.882 672.592 304.97 668.636 316.223ZM668.13 317.636C663.919 329.266 658.046 341.172 650.713 353.063C657.298 357.009 663.904 361.116 670.336 365.297C681.851 372.783 693.222 380.723 704.139 388.894C712.804 374.891 719.698 360.852 724.643 347.154C706.429 336.164 687.555 326.306 668.13 317.636ZM705.907 390.236C722.813 402.978 739.024 416.616 754.47 431.092C764.21 415.356 771.956 399.572 777.509 384.176C764.914 374.012 751.804 364.504 738.23 355.689C734.391 353.193 730.449 350.709 726.513 348.307C721.545 362.079 714.61 376.174 705.907 390.236ZM704.748 392.091C695.388 406.813 684.822 420.732 673.158 433.704C688.799 448.525 703.854 463.983 717.891 479.65C730.941 465.138 742.759 449.563 753.221 433.087C737.803 418.571 721.62 404.889 704.743 392.099L704.748 392.091ZM743.465 632.718C748.258 641.322 752.83 649.923 757.053 658.282C761.233 666.56 765.136 674.737 768.702 682.622C786.346 667.883 802.947 651.938 818.384 634.902C814.955 626.815 811.076 618.481 806.846 610.118C802.658 601.834 798.063 593.39 793.184 585.007C777.734 602.035 761.124 617.974 743.472 632.707L743.465 632.718ZM769.515 684.412C775.934 698.645 781.555 713.224 786.351 728.083C803.356 713.874 819.354 698.501 834.231 682.077C830.797 667.705 825.733 652.471 819.18 636.776C803.743 653.781 787.148 669.698 769.515 684.412ZM767.895 685.765C749.543 700.983 730.281 715.069 710.216 727.946C717.454 743.085 723.789 757.303 729.077 770.163C748.45 757.736 767.046 744.138 784.762 729.444C779.957 714.582 774.326 699.999 767.895 685.765ZM708.433 729.083C687.954 742.128 666.744 753.988 644.906 764.604C652.523 779.546 659.622 793.327 666.001 805.575C687.079 795.327 707.551 783.875 727.315 771.276C722.014 758.429 715.662 744.237 708.429 729.074L708.433 729.083ZM643.006 765.529C621.183 776.062 598.767 785.319 575.871 793.253C583.907 808.024 591.798 821.469 599.332 833.232C621.432 825.584 643.069 816.656 664.131 806.494C657.744 794.25 650.634 780.478 643.006 765.529ZM642.126 763.809C638.208 756.128 634.094 748.028 629.894 739.716C625.693 731.403 621.31 722.69 616.889 713.874C595.053 724.414 572.623 733.676 549.713 741.613C553.923 750.48 558.189 759.19 562.394 767.511C566.6 775.832 570.817 783.942 574.945 791.54C597.857 783.606 620.289 774.347 642.126 763.809ZM560.469 768.299C556.25 759.958 551.973 751.21 547.741 742.287C525.289 749.99 502.373 756.267 479.129 761.08C483.133 769.985 487.286 778.7 491.491 787.005C495.696 795.31 500.04 803.419 504.371 810.992C527.613 806.189 550.528 799.92 572.978 792.222C568.862 784.638 564.659 776.595 560.469 768.299ZM546.844 740.4C538.566 722.879 530.244 704.208 522.103 684.887C500.446 692.318 478.341 698.373 455.921 703.016C462.881 722.67 470.411 741.541 478.275 759.168C501.505 754.366 524.407 748.097 546.844 740.4ZM453.941 703.414C432.372 707.801 410.511 710.606 388.533 711.806C394.116 730.977 400.777 749.817 408.483 768.237C431.249 767.014 453.894 764.124 476.237 759.591C468.397 741.943 460.894 723.053 453.941 703.414ZM453.189 701.361C446.425 682.074 440.079 661.813 434.365 641.128C414.317 645.201 393.999 647.806 373.572 648.92C377.482 669.83 382.303 690.269 387.922 709.713C409.862 708.525 431.685 705.733 453.217 701.358L453.189 701.361ZM371.666 649.027C361.685 649.487 351.775 649.54 342.203 649.176C332.632 648.813 323.215 648.028 314.254 646.845C316.302 667.232 319.639 687.469 324.244 707.434C333.93 708.722 344.101 709.575 354.472 709.968C364.689 710.349 375.255 710.3 385.882 709.801C380.333 690.37 375.548 669.924 371.694 649.024L371.666 649.027ZM342.057 646.994C351.548 647.353 361.377 647.304 371.274 646.847C367.534 626.188 364.661 604.856 362.736 583.421C353.857 583.83 345.036 583.877 336.523 583.554C328.01 583.232 319.578 582.529 311.573 581.472C311.191 602.557 312.015 623.646 314.041 644.636C323.027 645.829 332.47 646.631 342.087 647.004L342.057 646.994ZM309.902 581.226C294.388 579.065 279.929 575.498 266.904 570.625C264.569 591.157 263.65 611.826 264.154 632.484C278.708 637.959 294.885 641.964 312.239 644.383C310.259 623.4 309.482 602.321 309.913 581.249L309.902 581.226ZM309.948 579.013C310.457 557.593 312.135 536.217 314.972 514.981C301.868 513.15 289.654 510.135 278.645 506.02C273.48 526.566 269.642 547.424 267.157 568.463C280.121 573.317 294.522 576.862 309.959 579.036L309.948 579.013ZM315.266 512.803C318.187 491.533 322.269 470.439 327.494 449.615C317.794 448.307 308.265 445.952 299.074 442.591C291.167 462.597 284.526 483.081 279.19 503.922C290.123 508.009 302.26 511.005 315.277 512.826L315.266 512.803ZM297.812 442.084C291.501 439.673 285.456 436.617 279.773 432.965C278.339 432.033 276.93 431.055 275.581 430.057C265.566 448.757 256.879 468.138 249.584 488.056C251.341 489.365 253.21 490.664 255.095 491.889C262.247 496.491 269.856 500.341 277.8 503.378C283.181 482.554 289.868 462.09 297.823 442.106L297.812 442.084ZM280.848 431.055C286.447 434.658 292.403 437.673 298.621 440.053C306.7 419.982 316.057 400.45 326.635 381.576C322.315 379.908 318.176 377.805 314.282 375.299C313.31 374.667 312.351 374.007 311.436 373.329C298.571 390.769 286.934 409.083 276.609 428.138C278.004 429.139 279.424 430.124 280.868 431.064L280.848 431.055ZM310.523 372.615C306.383 369.466 302.753 365.698 299.76 361.445C285.298 376.985 272.022 393.588 260.046 411.116C264.336 417.312 269.577 422.791 275.576 427.352C285.949 408.32 297.633 390.033 310.544 372.623L310.523 372.615ZM349.274 314.482C347.936 312.41 346.92 310.147 346.26 307.77C328.122 318.925 310.886 331.485 294.712 345.335C295.947 350.128 297.956 354.687 300.66 358.832C315.752 342.868 332.008 328.047 349.294 314.49L349.274 314.482ZM346 306.75C345.421 304.217 345.201 301.615 345.344 299.02C327.19 307.404 309.775 317.302 293.284 328.61C292.89 333.807 293.272 339.035 294.417 344.12C310.617 330.34 327.871 317.848 346.02 306.759L346 306.75ZM404.342 274.912C389.38 271.446 375.139 269.277 361.876 268.46C359.38 271.25 357.097 274.223 355.05 277.357C371.395 275.221 387.886 274.406 404.363 274.92L404.342 274.912ZM405.356 274.235C393.26 267.885 381.842 262.857 371.372 259.27C368.332 261.821 365.457 264.562 362.765 267.478C376.093 268.395 390.401 270.669 405.376 274.244L405.356 274.235ZM406.351 273.756C397.616 264.827 389.561 257.227 382.377 251.154C378.89 253.402 375.535 255.847 372.326 258.476C382.839 262.175 394.27 267.31 406.372 273.764L406.351 273.756ZM407.223 273.378C402.256 262.272 397.964 252.512 394.452 244.318C390.639 246.191 386.928 248.266 383.336 250.536C390.518 256.702 398.541 264.375 407.243 273.386L407.223 273.378ZM408.011 272.967C407.058 260.213 406.773 248.791 407.162 238.964C403.168 240.375 399.253 241.999 395.433 243.829C398.906 252.049 403.11 261.825 408.036 272.978L408.011 272.967ZM408.855 272.472C411.989 258.655 415.786 246.162 420.157 235.288C416.143 236.161 412.184 237.265 408.298 238.597C407.82 248.376 408.021 259.759 408.902 272.472L408.855 272.472ZM411.071 271.591C421.499 258.091 432.981 245.438 445.409 233.752C443.811 233.57 442.153 233.441 440.469 233.374C438.503 233.301 436.47 233.315 434.422 233.408C426.152 244.637 418.309 257.464 411.109 271.605L411.071 271.591ZM441.187 231.749C443.214 231.84 445.168 231.989 447.05 232.232C458.978 221.189 471.973 211.358 485.844 202.882C482.537 202.48 479.093 202.208 475.59 202.075C471.654 201.926 467.577 201.947 463.474 202.144C453.744 210.233 444.392 220.19 435.661 231.751C437.569 231.697 439.425 231.699 441.225 231.763L441.187 231.749ZM448.408 232.421C451.631 232.899 454.798 233.701 457.86 234.814C473.23 224.326 489.505 215.232 506.493 207.64C500.381 205.489 494.06 203.982 487.635 203.144C473.613 211.567 460.472 221.375 448.408 232.421ZM458.985 235.259C461.056 236.092 463.043 237.12 464.919 238.328C465.399 238.641 465.883 238.955 466.33 239.303C484.487 230.035 503.374 222.271 522.8 216.092C522.028 215.538 521.236 214.991 520.432 214.469C516.511 211.947 512.337 209.842 507.978 208.188C490.869 215.726 474.472 224.786 458.985 235.259ZM467.224 239.983C469.215 241.547 470.97 243.391 472.435 245.457C492.619 237.986 513.349 232.08 534.44 227.79C531.5 223.639 527.935 219.967 523.873 216.904C504.394 223.032 485.453 230.755 467.242 239.995L467.224 239.983ZM536.683 227.365C556.837 223.393 577.274 221.028 597.802 220.291C593.488 214.179 588.245 208.778 582.263 204.285C563.228 206.621 544.434 210.622 526.098 216.243C530.173 219.388 533.743 223.139 536.683 227.365ZM537.362 228.375C540.108 232.587 542.156 237.214 543.426 242.078C564.74 240.244 586.159 239.978 607.511 241.283C605.66 234.229 602.65 227.532 598.604 221.465C578.039 222.141 557.56 224.451 537.362 228.375ZM609.734 241.435C630.406 242.806 650.945 245.738 671.174 250.205C668.809 241.153 664.948 232.559 659.75 224.78C640.258 222.004 620.568 220.869 600.886 221.389C604.908 227.54 607.893 234.31 609.723 241.428L609.734 241.435ZM610.057 242.688C611.831 250.295 612.444 258.126 611.875 265.916C632.886 269.572 653.624 274.657 673.943 281.136C674.668 271.233 673.862 261.277 671.554 251.62C651.303 247.097 630.739 244.113 610.039 242.692L610.057 242.688ZM676.007 281.804C695.812 288.227 715.136 296.045 733.834 305.201C734.689 293.453 733.723 281.643 730.968 270.19C712.398 262.647 693.253 256.603 673.718 252.119C675.987 261.84 676.759 271.85 676.007 281.804ZM735.808 306.177C749.525 312.992 762.84 320.586 775.69 328.921C779.776 331.577 783.844 334.331 787.786 337.118C788.704 323.404 787.624 310.187 784.566 297.813C768.216 287.422 750.994 278.471 733.094 271.061C735.784 282.559 736.699 294.401 735.808 306.177ZM774.852 330.139C762.229 321.953 749.158 314.48 735.7 307.755C734.667 320.339 731.765 333.462 727.076 346.774C731.277 349.332 735.476 351.973 739.565 354.632C752.876 363.274 765.741 372.586 778.109 382.532C783.343 367.618 786.561 352.927 787.673 338.849C783.5 335.886 779.19 332.959 774.852 330.139ZM779.831 383.927C795.476 396.621 810.176 410.435 823.817 425.261C829.447 409.201 832.902 393.381 834.102 378.214C820.349 364.287 805.438 351.553 789.529 340.15C788.348 354.287 785.093 368.995 779.831 383.927ZM779.24 385.583C773.649 401.021 765.862 416.843 756.089 432.614C771.061 446.755 785.184 461.769 798.385 477.576C808.881 460.626 817.216 443.617 823.187 427.032C809.563 412.168 794.875 398.315 779.24 385.583ZM799.775 479.273C812.38 494.503 823.932 510.576 834.35 527.379C845.22 509.791 853.869 492.161 860.072 474.972C849.578 458.586 837.739 443.102 824.677 428.68C818.67 445.287 810.292 462.3 799.782 479.262L799.775 479.273ZM835.486 529.219C840.561 537.558 845.291 546.027 849.523 554.428C853.666 562.62 857.417 570.87 860.697 578.97C871.544 561.408 880.175 543.798 886.349 526.621C883.01 517.983 879.239 509.518 875.052 501.258C870.914 493.074 866.279 484.876 861.273 476.879C855.048 494.071 846.374 511.668 835.486 529.219ZM847.875 556.225C843.704 547.979 839.075 539.643 834.098 531.442C822.983 549.069 809.693 566.576 794.566 583.474C799.513 591.954 804.168 600.499 808.397 608.872C812.567 617.119 816.395 625.346 819.792 633.329C834.894 616.415 848.167 598.902 859.248 581.278C855.931 573.028 852.104 564.598 847.875 556.225ZM786.901 729.828C790.971 742.908 793.804 755.131 795.343 766.148C811.113 752.959 825.952 738.695 839.753 723.458C839.595 711.189 837.891 697.921 834.687 684.006C819.831 700.361 803.865 715.671 786.901 729.828ZM785.284 731.177C767.609 745.816 749.062 759.369 729.745 771.76C734.801 784.156 738.919 795.461 742.032 805.31C760.028 793.76 777.303 781.122 793.761 767.467C792.196 756.512 789.362 744.293 785.284 731.177ZM684.032 839.646C688.647 848.181 692.599 855.31 695.803 860.862C713.28 852.361 730.254 842.863 746.641 832.414C745.685 825.652 743.718 817.419 740.788 807.93C722.491 819.577 703.541 830.167 684.032 839.646ZM740.312 806.431C737.199 796.582 733.064 785.296 727.984 772.895C708.262 785.462 687.835 796.887 666.805 807.115C672.95 818.936 678.514 829.413 683.318 838.321C702.911 828.791 721.94 818.143 740.312 806.431ZM664.931 808.031C643.917 818.178 622.33 827.095 600.28 834.736C607.587 846.054 614.649 855.919 621.289 864.043C641.834 856.933 661.948 848.632 681.528 839.182C676.689 830.287 671.104 819.802 664.941 808.016L664.931 808.031ZM598.335 835.401C576.734 842.804 554.689 848.84 532.331 853.474C540.818 864.453 549.418 873.878 557.906 881.493C578.724 877.195 599.249 871.585 619.36 864.699C612.728 856.548 605.636 846.679 598.335 835.401ZM597.377 833.913C589.824 822.147 581.935 808.714 573.89 793.942C551.457 801.635 528.562 807.906 505.341 812.718C513.797 827.366 522.502 840.569 531.21 852.004C553.626 847.371 575.728 841.326 597.382 833.905L597.377 833.913ZM503.289 813.122C480.968 817.66 458.346 820.563 435.602 821.81C444.474 836.379 453.974 849.467 463.845 860.725C485.789 859.545 507.618 856.761 529.155 852.395C520.439 840.975 511.744 827.763 503.289 813.122ZM502.316 811.409C498.023 803.897 493.724 795.912 489.553 787.634C485.327 779.273 481.142 770.48 477.109 761.499C454.756 766.05 432.099 768.96 409.321 770.206C413.119 779.107 417.168 787.828 421.337 796.078C425.563 804.438 430.006 812.507 434.542 820.062C457.314 818.839 479.967 815.946 502.316 811.409ZM419.415 796.529C415.181 788.148 411.092 779.328 407.249 770.304C396.085 770.825 385.001 770.887 374.277 770.467C363.552 770.048 353.196 769.19 343.258 767.889C346.855 776.738 350.784 785.396 354.945 793.625C359.174 801.998 363.724 810.085 368.465 817.663C378.55 819.002 389.135 819.9 399.94 820.309C410.49 820.708 421.405 820.657 432.388 820.149C427.924 812.692 423.576 804.743 419.408 796.525L419.415 796.529ZM373.88 768.493C384.459 768.896 395.405 768.838 406.433 768.333C398.749 749.911 392.11 731.069 386.548 711.898C375.791 712.396 365.12 712.455 354.804 712.067C344.487 711.678 334.425 710.817 324.791 709.563C329.304 728.729 335.208 747.541 342.456 765.849C352.522 767.202 363.089 768.088 373.866 768.499L373.88 768.493ZM322.883 709.304C304.17 706.712 286.724 702.419 271.009 696.548C274.637 715.54 279.908 734.18 286.763 752.26C303.013 758.384 321.08 762.867 340.457 765.578C333.235 747.274 327.356 728.468 322.869 709.31L322.883 709.304ZM322.381 707.162C317.811 687.201 314.508 666.971 312.493 646.593C295.103 644.157 278.866 640.18 264.248 634.715C264.835 654.718 266.952 674.647 270.579 694.328C286.249 700.237 303.668 704.554 322.367 707.168L322.381 707.162ZM262.621 634.095C251.884 630.019 241.602 624.832 231.944 618.619C229.538 617.055 227.173 615.413 224.904 613.734C224.364 633.101 225.531 652.478 228.391 671.639C230.992 673.586 233.718 675.483 236.49 677.285C246.68 683.842 257.52 689.33 268.838 693.66C265.25 673.995 263.167 654.084 262.606 634.102L262.621 634.095ZM232.443 616.638C241.931 622.742 252.024 627.848 262.561 631.876C262.094 611.239 263.049 590.593 265.418 570.087C255.86 566.453 246.707 561.832 238.108 556.299C235.945 554.892 233.817 553.415 231.777 551.906C227.926 571.542 225.642 591.454 224.948 611.452C227.361 613.229 229.873 614.982 232.44 616.651L232.443 616.638ZM238.826 554.287C247.286 559.729 256.286 564.283 265.682 567.875C268.207 546.86 272.084 526.03 277.289 505.514C269.22 502.438 261.493 498.532 254.232 493.858C252.398 492.666 250.6 491.42 248.868 490.137C241.867 509.555 236.302 529.461 232.218 549.694C234.321 551.291 236.549 552.823 238.812 554.294L238.826 554.287ZM247.709 489.263C239.949 483.405 233.16 476.362 227.592 468.391C219.317 486.335 212.54 504.933 207.331 523.995C213.836 533.445 221.807 541.796 230.943 548.735C235.067 528.532 240.671 508.66 247.709 489.279L247.709 489.263ZM248.465 487.193C255.797 467.305 264.519 447.957 274.565 429.293C268.5 424.7 263.191 419.186 258.832 412.951C247.365 429.941 237.236 447.796 228.539 466.357C234.031 474.322 240.758 481.361 248.465 487.209L248.465 487.193ZM299.137 360.461C296.372 356.282 294.298 351.685 292.994 346.847C277.699 360.107 263.514 374.596 250.58 390.167C252.389 397.219 255.351 403.924 259.347 410.009C271.353 392.526 284.654 375.969 299.137 360.477L299.137 360.461ZM292.704 345.615C291.505 340.488 291.068 335.211 291.407 329.956C276.08 340.633 261.751 352.674 248.592 365.931C248.002 373.57 248.566 381.255 250.265 388.726C263.217 373.227 277.41 358.809 292.704 345.615ZM291.49 328.528C292.01 322.635 293.255 316.828 295.196 311.239C280.675 319.107 267.003 328.449 254.395 339.117C251.476 347.194 249.567 355.602 248.714 364.148C261.876 351.02 276.19 339.102 291.485 328.536L291.49 328.528ZM295.751 309.68C298.14 303.203 301.167 296.98 304.786 291.102C291.933 296.018 279.734 302.497 268.462 310.392C263.171 318.799 258.721 327.706 255.176 336.985C267.74 326.535 281.333 317.389 295.746 309.687L295.751 309.68ZM305.753 289.534C309.892 283.002 314.546 276.812 319.671 271.021C308.637 273.317 298.643 276.982 289.955 281.92C282.624 290.077 275.943 298.798 269.975 308C281.122 300.445 293.131 294.248 305.748 289.541L305.753 289.534ZM320.92 269.621C326.441 263.523 332.363 257.801 338.648 252.494C330.417 252.204 323.146 253.325 317.011 255.837C308.218 263.185 299.911 271.095 292.139 279.515C300.639 275.003 310.313 271.694 320.916 269.629L320.92 269.621ZM323.058 269.222C334.543 267.188 347.223 266.557 360.791 267.353C363.582 264.282 366.569 261.395 369.733 258.71C359.032 255.165 349.195 253.106 340.488 252.585C334.317 257.743 328.492 263.303 323.053 269.229L323.058 269.222ZM370.678 257.922C374.039 255.134 377.56 252.545 381.222 250.169C376.891 246.503 372.348 243.094 367.618 239.958C365.697 238.709 363.845 237.609 362.111 236.681C355.052 241.22 348.264 246.169 341.782 251.501C350.421 252.192 360.136 254.334 370.697 257.918L370.678 257.922ZM367.726 238.588C372.771 241.94 377.601 245.603 382.189 249.556C385.967 247.155 389.874 244.965 393.894 242.995C390.426 234.887 387.712 228.277 385.809 223.331C378.085 227.104 370.577 231.304 363.321 235.912C364.734 236.69 366.212 237.588 367.733 238.577L367.726 238.588ZM394.908 242.518C398.93 240.589 403.055 238.885 407.266 237.415C407.741 227.681 408.913 219.449 410.751 212.923C402.657 215.753 394.728 219.038 387.004 222.761C388.846 227.704 391.497 234.347 394.902 242.503L394.908 242.518ZM422.14 233.353C426.169 232.565 430.247 232.054 434.345 231.824C442.912 220.324 452.091 210.384 461.648 202.256C453.691 202.749 445.779 203.795 437.968 205.387C432.119 212.963 426.8 222.365 422.14 233.353ZM463.378 200.814C472.437 193.347 481.926 187.418 491.614 183.173C480.247 183.909 468.944 185.422 457.784 187.703C451.14 191.376 444.882 196.813 439.173 203.87C447.159 202.282 455.248 201.26 463.378 200.814ZM465.26 200.728C469.019 200.563 472.77 200.571 476.391 200.707C480.353 200.856 484.235 201.184 487.936 201.67C500.29 194.326 513.437 188.406 527.125 184.023C522.394 183.452 517.475 183.066 512.475 182.878C506.731 182.66 500.782 182.695 494.795 182.982C484.665 187.128 474.733 193.098 465.26 200.728ZM489.705 201.918C496.177 202.843 502.535 204.443 508.675 206.69C524.303 199.874 540.559 194.603 557.213 190.953C548.314 187.802 539.108 185.593 529.748 184.362C515.766 188.644 502.328 194.535 489.705 201.918ZM510.146 207.261C514.308 208.896 518.297 210.939 522.056 213.36C523.068 214.018 524.059 214.709 525.012 215.417C543.253 209.749 561.954 205.686 580.902 203.274C579.747 202.434 578.558 201.615 577.348 200.828C571.627 197.149 565.535 194.082 559.173 191.679C542.357 195.244 525.935 200.463 510.146 207.261ZM578.968 199.956C580.464 200.929 581.933 201.952 583.334 202.998C601.199 200.877 619.222 200.424 637.171 201.645C635.732 200.6 634.241 199.579 632.734 198.599C625.418 193.888 617.625 189.962 609.485 186.887C593.479 186.593 577.489 188.023 561.789 191.152C567.793 193.512 573.547 196.461 578.968 199.956ZM584.676 204.016C590.625 208.593 595.829 214.065 600.101 220.237C619.727 219.659 639.366 220.724 658.814 223.42C653.292 215.593 646.578 208.681 638.915 202.935C620.835 201.59 602.67 201.948 584.658 204.005L584.676 204.016ZM661.153 223.746C679.734 226.466 698.037 230.834 715.844 236.799C709.318 227.571 701.386 219.423 692.338 212.649C675.788 207.785 658.79 204.601 641.602 203.143C649.144 208.96 655.739 215.91 661.153 223.746ZM662.084 225.139C667.222 232.98 671.032 241.615 673.359 250.696C692.872 255.124 712 261.104 730.56 268.579C727.748 257.861 723.164 247.689 716.998 238.483C699.129 232.4 680.751 227.934 662.084 225.139ZM732.702 269.481C750.568 276.807 767.766 285.665 784.103 295.957C780.942 283.953 775.796 272.562 768.878 262.255C753.188 253.039 736.641 245.366 719.469 239.343C725.509 248.587 729.984 258.763 732.714 269.463L732.702 269.481ZM786.186 297.311L787.25 298.003C802.563 307.916 816.926 319.225 830.156 331.784C826.739 318.97 821.221 306.81 813.827 295.8C802.936 285.63 791.174 276.435 778.676 268.322C776.358 266.815 773.984 265.324 771.597 263.876C778.245 274.149 783.177 285.435 786.198 297.293L786.186 297.311ZM786.755 299.246L786.645 299.174C789.6 311.561 790.608 324.768 789.638 338.458C805.545 349.795 820.462 362.459 834.231 376.315C835.203 361.578 834.034 347.374 830.743 334.075C817.221 321.088 802.493 309.419 786.757 299.226L786.755 299.246ZM835.897 378.013C849.136 391.55 861.065 406.311 871.521 422.097C872.497 406.898 871.273 392.241 867.875 378.513C857.673 363.179 845.907 348.946 832.766 336.043C835.884 349.286 836.938 363.394 835.897 378.013ZM835.75 379.932C834.487 395.085 830.98 410.887 825.336 426.896C838.398 441.264 850.245 456.691 860.758 473.018C866.576 456.387 870.148 439.995 871.373 424.307C860.936 408.417 849.008 393.558 835.75 379.932ZM861.972 474.97C867.138 483.17 871.911 491.589 876.157 499.999C880.252 508.097 883.928 516.325 887.102 524.476C892.872 507.912 896.415 491.596 897.628 475.967C894.347 467.229 890.588 458.678 886.369 450.353C882.236 442.189 877.696 434.239 872.765 426.531C871.445 442.148 867.812 458.442 861.972 474.97ZM887.979 526.762C893.918 542.331 898.182 558.488 900.698 574.961C906.137 559.194 909.49 543.636 910.642 528.735C908.523 511.756 904.523 495.066 898.717 478.971C897.355 494.404 893.74 510.469 887.979 526.762ZM887.209 528.901C880.975 546.003 872.327 563.519 861.494 580.985C867.788 596.903 872.385 612.679 875.175 627.889C885.574 611.017 893.843 594.116 899.766 577.621C897.356 560.974 893.146 544.639 887.209 528.901ZM875.572 630.135C878.052 644.114 878.92 658.331 878.159 672.508C887.668 656.998 895.245 641.458 900.686 626.298C902.31 611.058 902.137 595.681 900.171 580.482C894.169 596.801 885.902 613.489 875.572 630.135ZM874.036 632.585C862.795 650.209 850.116 666.873 836.128 682.408C839.327 696.266 841.07 709.482 841.279 721.737C854.244 707.271 865.985 691.753 876.383 675.344C877.319 661.722 876.527 647.34 874.036 632.585ZM795.568 767.865C796.925 778.393 797.079 787.914 796.012 796.184C809.984 784.487 823.133 771.843 835.367 758.34C838.271 748.417 839.75 737.385 839.765 725.526C826.02 740.634 811.253 754.781 795.568 767.865ZM793.948 769.217C777.564 782.784 760.373 795.345 742.468 806.83C745.376 816.296 747.325 824.533 748.27 831.345C764.288 821.052 779.664 809.793 794.311 797.629C795.425 789.391 795.315 779.819 793.948 769.217ZM696.432 861.949C699.381 867.043 701.678 870.733 703.247 872.917C718.07 865.702 732.466 857.642 746.365 848.777C747.446 845.213 747.598 840.163 746.811 833.782C730.568 844.122 713.748 853.527 696.432 861.949ZM694.755 862.763C677.46 871.108 659.698 878.45 641.558 884.753C642.944 885.831 644.348 886.833 645.687 887.703C649.456 890.154 652.999 891.742 656.216 892.419C671.722 887.058 686.903 880.798 701.681 873.672C700.057 871.468 697.728 867.805 694.755 862.763ZM694.104 861.662C690.87 856.132 686.884 849.023 682.246 840.509C662.764 849.921 642.754 858.195 622.315 865.289C628.733 873.072 634.831 879.316 640.412 883.836C658.723 877.489 676.651 870.085 694.104 861.662ZM620.392 865.912C600.389 872.78 579.975 878.384 559.27 882.693C563.741 886.639 568.485 890.264 573.468 893.54C576.791 895.712 580.253 897.664 583.832 899.385C602.346 895.566 620.6 890.584 638.488 884.468C632.889 879.911 626.806 873.676 620.403 865.919L620.392 865.912ZM571.795 894.315C566.655 890.939 561.766 887.194 557.168 883.11C537.351 887.148 517.267 889.749 497.075 890.893C498.193 891.662 499.318 892.419 500.436 893.146C508.994 898.779 518.228 903.308 527.921 906.626C545.92 905.669 563.826 903.408 581.498 899.861C578.16 898.21 574.923 896.36 571.806 894.322L571.795 894.315ZM555.823 881.913C547.335 874.266 538.75 864.841 530.284 853.885C508.821 858.256 487.068 861.058 465.198 862.272C474.84 873.063 484.95 882.26 495.265 889.618C515.614 888.53 535.857 885.958 555.832 881.924L555.823 881.913ZM462.982 862.381C452.21 862.902 441.48 862.948 431.139 862.549C421.084 862.168 411.221 861.354 401.796 860.131C411.085 869.529 421.34 877.92 432.391 885.164C433.587 885.941 434.793 886.725 436.006 887.451C445.086 888.659 454.613 889.468 464.331 889.838C473.599 890.187 483.181 890.15 492.841 889.727C482.593 882.339 472.553 873.147 462.991 862.392L462.982 862.381ZM430.506 860.979C440.615 861.358 451.08 861.311 461.608 860.852C451.758 849.57 442.287 836.485 433.45 821.935C422.278 822.461 411.165 822.509 400.465 822.116C389.902 821.713 379.537 820.854 369.642 819.56C378.899 834.097 389.133 847.172 400.086 858.435C409.86 859.739 420.09 860.598 430.522 860.994L430.506 860.979ZM367.499 819.253C348.272 816.593 330.34 812.213 314.144 806.207C323.411 820.383 334.21 833.496 346.344 845.31C361.899 851.181 379.173 855.488 397.712 858.123C386.367 846.219 376.25 833.201 367.515 819.268L367.499 819.253ZM366.317 817.363C361.699 809.942 357.271 802.044 353.137 793.869C348.895 785.477 344.893 776.641 341.245 767.608C321.885 764.935 303.839 760.507 287.582 754.441C290.999 763.173 294.819 771.734 298.943 779.892C303.121 788.176 307.726 796.238 312.737 804.046C328.969 810.174 346.992 814.654 366.333 817.378L366.317 817.363ZM297.365 779.999C293.112 771.584 289.187 762.751 285.691 753.739C273.682 749.188 262.183 743.391 251.381 736.443C248.858 734.803 246.376 733.084 243.982 731.325C247.21 739.795 250.869 748.094 254.946 756.19C259.164 764.548 263.845 772.664 268.967 780.501C271.691 782.538 274.548 784.531 277.46 786.424C287.885 793.135 298.967 798.766 310.534 803.229C305.847 795.842 301.423 788.041 297.365 779.999ZM251.449 734.614C261.971 741.386 273.163 747.058 284.846 751.54C278.052 733.479 272.835 714.864 269.253 695.902C257.686 691.512 246.61 685.926 236.205 679.233C233.663 677.581 231.168 675.85 228.77 674.082C231.716 692.717 236.483 711.018 243.004 728.722C245.696 730.743 248.537 732.721 251.434 734.604L251.449 734.614ZM227.16 672.884C216.241 664.678 206.667 654.823 198.78 643.672C201.268 661.699 205.652 679.412 211.858 696.518C219.909 708.253 229.766 718.639 241.065 727.29C234.677 709.648 230.02 691.427 227.16 672.884ZM226.789 670.452C224 651.333 222.892 632.006 223.479 612.693C213.222 604.976 204.243 595.693 196.87 585.186C195.558 603.664 196.06 622.225 198.37 640.604C206.197 651.999 215.793 662.073 226.794 670.445L226.789 670.452ZM223.573 610.397C224.315 590.433 226.638 570.561 230.521 550.965C221.345 544.052 213.316 535.736 206.73 526.322C201.837 544.762 198.607 563.603 197.078 582.619C204.371 593.223 213.311 602.594 223.56 610.377L223.573 610.397ZM205.743 524.888C199.648 515.752 195.094 505.679 192.262 495.068C186.832 512.008 183.101 529.446 181.125 547.124C184.151 559.121 189.15 570.532 195.918 580.889C197.522 561.967 200.81 543.226 205.743 524.888ZM206.368 522.586C211.624 503.587 218.437 485.054 226.739 467.175C221.557 459.394 217.692 450.813 215.298 441.776C206.353 457.936 198.926 474.891 193.111 492.422C195.822 503.142 200.306 513.333 206.375 522.575L206.368 522.586ZM227.698 465.122C236.438 446.609 246.602 428.803 258.099 411.864C254.044 405.76 251.015 399.033 249.134 391.95C236.9 406.883 225.981 422.846 216.497 439.659C218.793 448.707 222.581 457.309 227.705 465.111L227.698 465.122ZM246.963 365.926C247.707 357.4 249.504 348.999 252.314 340.915C240.773 350.955 230.4 362.262 221.39 374.624C217.677 384.879 215.241 395.552 214.139 406.403C223.758 391.885 234.753 378.326 246.97 365.915L246.963 365.926ZM253.058 338.79C256.463 329.539 260.772 320.647 265.924 312.242C255.926 319.595 246.975 328.272 239.316 338.037C232.739 348.49 227.176 359.547 222.702 371.058C231.627 359.233 241.808 348.41 253.065 338.779L253.058 338.79ZM309.842 259.779C306.846 262.245 304.755 263.985 303.05 265.412C299.887 268.239 295.617 272.135 289.157 278.036C285.508 281.731 282.534 284.749 280.02 287.277C282.944 285.014 286.018 282.952 289.219 281.102C296.792 272.722 304.896 264.837 313.48 257.497C312.225 258.18 311.012 258.939 309.849 259.768L309.842 259.779ZM331.187 243.34C328.023 245.655 323.749 248.834 317.289 253.644C316.424 254.359 315.597 255.038 314.806 255.682C315.412 255.381 316.025 255.101 316.645 254.843C322.195 250.214 328.019 245.71 334.061 241.374C332.992 242.088 332.046 242.74 331.187 243.34ZM319.524 253.762C325.451 251.777 332.295 250.968 339.962 251.397C346.623 245.873 353.61 240.753 360.884 236.065C355.829 233.52 351.636 232.427 348.394 232.808C338.38 239.238 328.741 246.234 319.524 253.762ZM382.572 213.568C371.536 218.956 360.804 224.945 350.423 231.508C353.616 231.581 357.536 232.83 362.111 235.246C369.615 230.462 377.386 226.107 385.384 222.204C383.808 218.007 382.877 215.17 382.572 213.568ZM383.962 212.907C384.141 214.374 385.024 217.301 386.589 221.626C394.58 217.777 402.784 214.389 411.162 211.479C412.86 205.978 415.092 201.727 417.829 198.816C406.292 202.88 394.989 207.579 383.972 212.892L383.962 212.907ZM412.627 210.976C420.749 208.214 429.034 205.955 437.434 204.21C442.684 197.498 448.422 192.187 454.514 188.369C442.967 190.868 431.577 194.046 420.405 197.888C417.224 200.598 414.612 204.994 412.637 210.961L412.627 210.976ZM452.908 186.97C448.899 188.057 443.577 189.559 435.525 191.842L435.221 191.941L426.915 194.711C436.896 191.523 447.038 188.865 457.3 186.747C458.344 186.184 459.412 185.657 460.494 185.172C457.437 185.886 455.002 186.453 452.918 186.955L452.908 186.97ZM510.975 176.952C501.501 178.066 495.241 178.796 490.654 179.392C485.994 180.14 480.016 181.199 470.979 182.774C467.609 183.472 464.329 184.545 461.199 185.974C472.251 183.851 483.436 182.482 494.674 181.875C501.852 179.123 505.161 177.982 511.225 176.984L511.543 176.92L510.975 176.952ZM548.61 175.667C541.928 175.617 537.846 175.613 534.539 175.644L534.142 175.652C531.357 175.772 528.054 175.941 523.467 176.209C518.537 176.818 514.523 177.328 511.396 177.852C506.829 178.821 502.338 180.117 497.956 181.729C503.133 181.542 508.259 181.546 513.223 181.742C518.967 181.959 524.599 182.428 529.967 183.142C541.328 179.752 553.034 177.652 564.865 176.88C557.646 176.204 553.16 175.834 548.599 175.66L548.61 175.667ZM532.635 183.541C541.916 184.879 551.031 187.187 559.83 190.426C575.166 187.251 590.792 185.694 606.453 185.781C595.274 181.877 583.723 179.132 571.983 177.59C558.667 177.881 545.444 179.874 532.633 183.519L532.635 183.541ZM644.909 189.485C636.606 187.218 627.788 185.221 613.178 181.937C602.012 180.197 594.632 179.047 588.648 178.229C585.401 177.918 582.159 177.715 578.949 177.621C589.561 179.359 599.981 182.115 610.065 185.85C622.748 186.165 635.373 187.675 647.772 190.361C646.781 190.04 645.833 189.757 644.909 189.485ZM657.552 193.719C643.024 189.811 628.102 187.557 613.069 186.999C620.471 189.948 627.571 193.606 634.27 197.922C636.195 199.174 638.087 200.493 639.893 201.839C656.773 203.177 673.479 206.174 689.771 210.788C688.242 209.689 686.671 208.616 685.076 207.579C676.415 202.001 667.189 197.356 657.552 193.719ZM732.188 227.161C726.603 223.901 722.453 221.537 718.725 219.494C704.639 211.824 694.899 207.715 675.508 199.538L675.158 199.41L672.169 198.39L668.318 197.139C674.645 200.016 680.752 203.355 686.589 207.128C688.885 208.62 691.137 210.188 693.282 211.792C707.23 215.978 720.762 221.443 733.706 228.117L732.188 227.161ZM741.193 233.276C726.783 225.166 711.556 218.602 695.765 213.693C704.471 220.488 712.088 228.571 718.355 237.664C735.356 243.538 751.757 251.022 767.335 260.015C760.051 249.808 751.233 240.788 741.193 233.276ZM777.342 258.721C767.935 251.14 758.992 244.705 752.257 239.978C750.673 238.948 749.144 238.001 747.676 237.099C756.25 244.204 763.799 252.463 770.108 261.64C773.054 263.399 776 265.231 778.861 267.091C790.227 274.472 800.988 282.745 811.044 291.831C808.367 288.176 805.494 284.669 802.436 281.326C795.514 274.713 787.116 266.854 777.349 258.726L777.342 258.721ZM809.878 288.465L809.679 288.273C811.527 290.606 813.289 292.993 814.945 295.421C817.595 297.919 820.193 300.477 822.737 303.095C818.917 298.707 814.67 293.885 809.878 288.465ZM854.522 345.606C852.24 341.894 850.03 338.481 847.817 335.2L847.286 334.412L846.588 333.4L846.314 333.018L845.917 332.442C837.429 320.543 827.894 309.428 817.425 299.229C824.118 309.901 829.107 321.552 832.209 333.761C845.18 346.368 856.84 360.257 867.008 375.216C864.139 364.849 859.943 354.897 854.522 345.606ZM886.67 408.239C883.599 400.927 879.615 392.176 872.992 377.687C869.275 370.998 865.784 364.748 862.422 358.901C865.192 365.213 867.439 371.742 869.139 378.422C874.362 386.391 879.136 394.644 883.44 403.145C885.595 407.421 887.64 411.771 889.551 416.158C888.454 413.103 887.541 410.559 886.668 408.243L886.67 408.239ZM894.123 430.143C890.856 421.297 887.085 412.645 882.829 404.229C878.913 396.488 874.605 388.951 869.921 381.648C872.99 395.121 874.007 409.445 872.95 424.273C878.138 432.306 882.902 440.606 887.221 449.138C891.16 456.929 894.701 464.914 897.831 473.063C898.725 458.109 897.478 443.672 894.12 430.147L894.123 430.143ZM910.816 507.714C908.967 493.256 907.729 483.838 906.105 474.957C904.633 467.703 902.724 459.863 899.723 447.963L897.256 439.969C899.304 451.898 899.878 464.032 898.965 476.101C904.609 491.387 908.635 507.223 910.977 523.349C911.202 518.138 911.148 512.919 910.816 507.714ZM911.959 524.895C911.9 526.271 911.816 527.651 911.719 529.028C911.988 531.289 912.217 533.551 912.406 535.813C912.296 532.491 912.15 528.911 911.959 524.895ZM908.312 598.822L908.389 598.319C909.011 594.361 909.677 589.974 910.38 585.329C911.253 573.778 911.885 565.44 912.259 558.019C912.357 550.076 912.022 542.133 911.256 534.226C909.772 548.353 906.383 563.005 901.115 577.866C903.112 592.47 903.477 607.251 902.202 621.936C904.731 614.37 906.772 606.649 908.312 598.822ZM902.791 627.723C903.775 623.537 904.682 619.197 905.604 614.423C904.453 618.506 903.15 622.604 901.708 626.685C901.223 630.892 900.588 635.08 899.8 639.249C900.966 635.04 901.935 631.278 902.791 627.723ZM883.382 687.151C886.524 679.558 889.442 671.819 893.223 661.726C894.23 658.572 895.187 655.349 896.036 652.134C897.065 647.686 898.057 642.06 899.81 631.884C894.329 646.157 887 660.722 877.986 675.245C877.103 687.318 874.733 699.236 870.93 710.728C875.516 703.107 879.674 695.236 883.382 687.151ZM868.052 715.42C872.413 703.392 875.149 690.835 876.189 678.082C865.824 694.248 854.159 709.542 841.311 723.813C841.354 735.448 840.008 746.322 837.308 756.164C848.65 743.444 858.933 729.817 868.052 715.42ZM874.882 705.941C873.093 709.119 871.209 712.297 869.246 715.461C868.926 716.171 868.589 716.922 868.246 717.674C867.81 718.794 867.353 719.906 866.887 721.017C869.624 716.092 872.3 711.108 874.882 705.941ZM828.852 777.55C835.307 769.226 839.474 763.9 842.698 759.574C845.951 754.907 850.164 748.594 856.546 739.075C856.753 738.756 856.961 738.437 857.142 738.101L857.238 737.954L857.476 737.587L857.5 737.551C859.815 733.348 862.579 727.868 865.859 720.776C857.065 734.154 847.27 746.846 836.559 758.745C834.383 766.02 831.263 772.978 827.278 779.443C827.802 778.813 828.328 778.183 828.856 777.552L828.852 777.55ZM821.491 786.057C827.256 778.513 831.674 770.029 834.548 760.98C822.469 774.179 809.517 786.552 795.778 798.013C794.671 805.333 792.57 811.704 789.527 816.993C800.856 807.401 811.535 797.067 821.495 786.059L821.491 786.057ZM793.707 814.681C791.754 816.385 789.783 818.079 787.794 819.764C787.599 820.064 787.385 820.353 787.171 820.642C788.968 818.993 791.092 817.066 793.71 814.683L793.707 814.681ZM746.611 851.488C751.532 848.172 754.726 846.011 757.313 844.23C760.489 841.912 764.757 838.734 771.211 833.925L771.563 833.633C775.901 830.067 779.328 827.25 782.006 825.032C782.748 824.308 783.486 823.557 784.137 822.765C772.491 832.238 760.321 841.047 747.683 849.149C747.406 849.963 747.048 850.748 746.615 851.491L746.611 851.488ZM748.174 847.616C761.583 838.971 774.459 829.527 786.733 819.334C790.301 813.99 792.754 807.311 794.028 799.469C779.515 811.458 764.295 822.564 748.45 832.729C749.218 838.899 749.124 843.899 748.177 847.618L748.174 847.616ZM714.401 870.469L714.63 870.357C721.326 866.67 725.751 864.237 729.014 862.403C732.101 860.56 736.085 858.131 742.854 854.002C744.139 853.087 745.138 851.827 745.738 850.368C732.225 858.937 718.243 866.742 703.856 873.745C704.197 874.234 704.603 874.673 705.063 875.051C707.605 873.829 710.636 872.336 714.405 870.471L714.401 870.469ZM669.132 890.294C672.733 888.936 677.563 887.067 684.874 884.24C691.895 881.151 696.551 879.117 699.936 877.577C701.006 877.062 702.204 876.495 703.53 875.829C703.091 875.426 702.686 874.989 702.32 874.52C688.029 881.414 673.364 887.499 658.391 892.748C659.859 892.879 661.338 892.785 662.777 892.47C665.307 891.604 667.366 890.908 669.132 890.294ZM617.869 904.718C626.115 902.828 631.566 901.577 635.6 900.595C639.621 899.505 644.942 897.997 652.987 895.725L658.445 893.894C657.559 893.87 656.676 893.78 655.804 893.623C642.314 898.252 628.578 902.127 614.657 905.229C615.736 905.105 616.804 904.938 617.864 904.726L617.869 904.718ZM653.908 893.193C650.854 892.361 647.565 890.808 644.104 888.557C642.67 887.625 641.185 886.555 639.681 885.385C622.017 891.446 603.994 896.403 585.715 900.228C593.474 903.676 601.083 905.477 608.327 905.569C623.757 902.398 638.975 898.273 653.893 893.215L653.908 893.193ZM558.57 911.713C562.138 911.529 566.282 911.286 571.392 910.977C582.328 910.02 593.208 908.503 603.989 906.432C597.303 905.868 590.376 903.947 583.345 900.712C566.08 904.228 548.589 906.525 531.001 907.585C539.934 910.309 549.217 911.708 558.556 911.735L558.57 911.713ZM485.649 907.218C492.382 908.256 497.832 909.07 502.541 909.675C509.328 910.357 517.247 910.887 530.327 911.816C536.822 911.864 542.023 911.912 546.327 911.929C539.965 911.145 533.693 909.75 527.599 907.763C518.625 908.189 509.716 908.235 501.117 907.909C494.889 907.674 488.746 907.238 482.783 906.612C483.717 906.844 484.667 907.06 485.635 907.24L485.649 907.218ZM500.385 906.844C508.28 907.145 516.43 907.128 524.65 906.795C515.556 903.493 506.878 899.142 498.792 893.83C497.413 892.934 496.016 891.994 494.646 891.036C484.61 891.507 474.637 891.561 465.008 891.197C455.992 890.855 447.133 890.141 438.651 889.072C450.065 895.833 462.305 901.089 475.067 904.71C483.181 905.791 491.702 906.51 500.385 906.844ZM400.417 882.716C404.089 884.289 407.922 885.904 412.95 888.025L413.212 888.128C427.241 892.902 435.708 895.782 443.587 898.092C448.22 899.367 453.283 900.623 460.493 902.3C463.033 902.807 465.618 903.27 468.249 903.69C456.813 899.948 445.846 894.903 435.563 888.655C419.946 886.5 405.29 883.061 391.87 878.458C394.685 879.944 397.548 881.367 400.422 882.708L400.417 882.716ZM432.949 887.05C432.263 886.604 431.578 886.158 430.896 885.715C419.499 878.242 408.943 869.56 399.41 859.821C381.171 857.302 364.132 853.17 348.728 847.533C357.426 855.699 366.826 863.082 376.819 869.598C379.834 871.557 382.935 873.448 386.038 875.23C400.262 880.611 416.035 884.579 432.954 887.042L432.949 887.05ZM311.18 828.878C323.253 838.604 334.584 846.477 345.537 854.087C355.622 860.033 362.905 864.334 369.749 868.074L369.999 868.236C373.12 869.744 376.443 871.22 379.522 872.575C378.174 871.748 376.841 870.904 375.523 870.043C364.914 863.125 354.969 855.238 345.816 846.485C334.208 842.093 323.093 836.494 312.655 829.78C311.988 829.346 311.32 828.912 310.665 828.46L311.18 828.878ZM304.128 822.562C306.766 824.538 309.534 826.467 312.358 828.303C322.175 834.624 332.598 839.949 343.472 844.2C331.601 832.439 321.031 819.434 311.945 805.409C299.923 800.856 288.412 795.055 277.601 788.101C275.364 786.647 273.159 785.135 271.021 783.584C280.591 797.753 291.694 810.825 304.128 822.562ZM278.628 799.12C283.097 803.433 287.958 808.121 293.126 812.931C283.995 803.207 275.705 792.726 268.346 781.6C261.268 776.25 254.713 770.242 248.768 763.656C256.45 773.778 265.38 784.148 278.637 799.099L278.628 799.12ZM229.332 734.28C232.797 740.184 235.843 745.081 238.914 749.738C246.575 760.603 255.798 770.277 266.284 778.449C261.668 771.23 257.421 763.782 253.559 756.133C249.254 747.605 245.412 738.852 242.048 729.911C231.145 721.72 221.524 711.95 213.503 700.921C216.504 708.688 219.911 716.36 223.653 723.764C225.354 727.061 227.21 730.506 229.34 734.259L229.332 734.28ZM215.511 709.911C216.524 711.734 217.499 713.484 218.436 715.161C215.763 709.339 213.297 703.39 211.081 697.401C209.462 694.985 207.926 692.506 206.472 689.965C208.914 695.454 211.84 701.827 215.519 709.89L215.511 709.911ZM183.361 616.762C184.803 623.37 186.64 631.258 188.967 641.274C193.765 656.314 196.935 666.252 200.132 674.913C202.734 681.102 205.833 687.07 209.398 692.759C203.636 676.135 199.574 658.969 197.275 641.526C190.735 631.748 185.659 621.066 182.208 609.82C182.55 612.062 182.941 614.35 183.361 616.762ZM196.899 638.396C194.735 620.179 194.339 601.796 195.717 583.502C189.004 573.456 183.955 562.395 180.761 550.742C179.112 567.937 179.272 585.257 181.239 602.418C184.458 615.188 189.755 627.342 196.917 638.392L196.899 638.396ZM176.041 533.51C175.832 543.286 176.148 553.096 176.661 569.351C177.738 579.218 178.546 586.587 179.34 592.973C178.173 577.891 178.383 562.735 179.969 547.692C178.013 539.694 176.86 531.52 176.527 523.293C176.305 526.957 176.15 530.221 176.048 533.499L176.041 533.51ZM178.255 502.923C178.011 505.547 177.782 508.006 177.569 510.302C177.009 521.615 177.953 532.953 180.375 544.017C182.473 526.662 186.256 509.553 191.673 492.933C189.076 482.119 188.067 470.985 188.676 459.881C183.786 473.844 180.297 488.259 178.263 502.912L178.255 502.923ZM190.127 455.931C189.221 467.43 190.051 478.999 192.587 490.251C198.462 472.869 205.923 456.065 214.876 440.051C212.616 430.608 211.781 420.881 212.398 411.192C203.445 425.288 195.983 440.279 190.134 455.92L190.127 455.931ZM201.601 409.192C200.527 411.843 199.457 414.516 198.391 417.21C194.428 428.486 191.77 440.178 190.469 452.058C196.362 436.951 203.759 422.475 212.549 408.849C213.456 398.327 215.633 387.953 219.033 377.954C212.228 387.774 206.392 398.232 201.608 409.181L201.601 409.192ZM231.771 348.84C225.632 359.425 219.832 369.422 214.277 380.439C212.121 384.839 210.099 389.201 207.999 393.965C211.683 387.188 215.786 380.647 220.282 374.379C223.641 365.184 227.728 356.271 232.506 347.727L232.06 348.413L231.771 348.84Z" fill="url(#paint2_linear_626_38422)"/>
<defs>
<filter id="filter0_f_626_38422" x="50.2651" y="50.9866" width="987.031" height="987.031" filterUnits="userSpaceOnUse" color-interpolation-filters="sRGB">
<feFlood flood-opacity="0" result="BackgroundImageFix"/>
<feBlend mode="normal" in="SourceGraphic" in2="BackgroundImageFix" result="shape"/>
<feGaussianBlur stdDeviation="62" result="effect1_foregroundBlur_626_38422"/>
</filter>
<radialGradient id="paint0_radial_626_38422" cx="0" cy="0" r="1" gradientUnits="userSpaceOnUse" gradientTransform="translate(171.018 139.658) rotate(54.5647) scale(679.277 862.612)">
<stop stop-color="#F3F7FF"/>
<stop offset="0.193558" stop-color="#F3F7FF"/>
<stop offset="0.537721" stop-color="#AFD1FF"/>
<stop offset="1" stop-color="#866EFF"/>
</radialGradient>
<linearGradient id="paint1_linear_626_38422" x1="289.969" y1="-236.919" x2="289.969" y2="500.629" gradientUnits="userSpaceOnUse">
<stop stop-color="white" stop-opacity="0.13"/>
<stop offset="1" stop-color="white" stop-opacity="0.86"/>
</linearGradient>
<linearGradient id="paint2_linear_626_38422" x1="368.181" y1="210.8" x2="722.508" y2="851.08" gradientUnits="userSpaceOnUse">
<stop stop-color="white"/>
<stop offset="1" stop-color="white" stop-opacity="0"/>
</linearGradient>
</defs>
</svg>
