<svg width="1280" height="670" viewBox="0 0 1280 670" fill="none" xmlns="http://www.w3.org/2000/svg">
<g clip-path="url(#clip0_273_2)">
<path d="M1280 0.0666504V669.933H0V0.0666504H1280Z" fill="white"/>
<path d="M506.88 541.507C536.96 541.507 564.053 554.733 582.506 575.64H431.253C449.706 554.733 476.8 541.507 506.88 541.507Z" fill="#EBEBFF"/>
<path d="M1280 56.1733V575.747H1112.11V56.4933L1280 56.1733Z" fill="#CCCCFF"/>
<path d="M1280 144.28V575.213H1123.41L1123.52 144.28H1280Z" fill="#EBEBFF"/>
<path d="M1280 423V575.213H1157.87V423H1280Z" fill="#CCCCFF"/>
<g style="mix-blend-mode:overlay" opacity="0.6">
<path d="M1280 529.347V575.213H1157.87V529.347H1280Z" fill="#1A1A1A"/>
</g>
<g style="mix-blend-mode:overlay" opacity="0.5">
<path d="M1280 423.107V428.44H1157.87V423L1280 423.107Z" fill="#1A1A1A"/>
</g>
<path d="M1280 412.227V423H1146.24V412.227H1280Z" fill="#CCCCFF"/>
<path d="M1195.73 349.827H1232L1237.76 412.227H1184.43L1195.73 349.827Z" fill="#CCCCFF"/>
<g style="mix-blend-mode:overlay" opacity="0.5">
<path d="M1193.92 349.827H1230.08L1235.84 412.227H1182.51L1193.92 349.827Z" fill="#1A1A1A"/>
</g>
<path d="M1183.89 349.827H1232L1220.59 412.227H1172.48L1183.89 349.827Z" fill="white"/>
<path d="M1185.07 359H1226.13V357.72H1185.07V359Z" fill="#EBEBFF"/>
<path d="M1183.79 365.4H1224.85V364.12H1183.79V365.4Z" fill="#EBEBFF"/>
<path d="M1182.4 371.8H1223.47V370.52H1182.4V371.8Z" fill="#EBEBFF"/>
<path d="M1181.12 378.2H1222.19V376.92H1181.12V378.2Z" fill="#EBEBFF"/>
<path d="M1179.73 384.6H1220.8V383.32H1179.73V384.6Z" fill="#EBEBFF"/>
<path d="M1178.45 391H1219.52V389.72H1178.45V391Z" fill="#EBEBFF"/>
<path d="M1177.07 397.4H1218.13V396.12H1177.07V397.4Z" fill="#EBEBFF"/>
<path d="M1175.79 403.8H1216.85V402.52H1175.79V403.8Z" fill="#EBEBFF"/>
<path d="M1280 171.693V282.627H1180.38V171.693H1280Z" fill="#CCCCFF"/>
<g style="mix-blend-mode:overlay" opacity="0.2">
<path d="M1280 178.093V241.773L1248.75 282.627L1246.4 285.72H1197.76L1200.11 282.627L1280 178.093Z" fill="white"/>
<path d="M1280 265.347V285.72H1264.43L1266.77 282.627L1280 265.347Z" fill="white"/>
</g>
<path d="M1280 168.813V163.48H1171.52V290.947H1280V285.72H1176.85V168.813H1280Z" fill="#CCCCFF"/>
<path d="M1280 575.64V669.934H0V575.64H1280Z" fill="#CCCCFF"/>
<path d="M1088.64 80.3867H535.574V575.64H1088.64V80.3867Z" fill="#EBEBFF"/>
<path d="M748.589 380.653V226.733H600.322V380.653H748.589Z" fill="#CCCCFF"/>
<g style="mix-blend-mode:overlay" opacity="0.6">
<path d="M748.589 380.653V226.733H600.322V380.653H748.589Z" fill="#1A1A1A"/>
</g>
<path fill-rule="evenodd" clip-rule="evenodd" d="M594.988 221.4H753.922V385.88H594.988V221.4ZM600.322 226.627V380.653H748.588V226.627H600.322Z" fill="#CCCCFF"/>
<path d="M642.774 345.347V371.8H609.494V345.347H642.774Z" fill="#CCCCFF"/>
<path d="M629.121 312.92V339.374H609.494V312.92H629.121Z" fill="#CCCCFF"/>
<path d="M715.095 312.92H697.602V315.16H715.095V312.92Z" fill="#CCCCFF"/>
<path d="M723.629 312.92V315.16H740.909V312.92H723.629Z" fill="#CCCCFF"/>
<path d="M715.095 318.68H697.602V320.92H715.095V318.68Z" fill="#CCCCFF"/>
<path d="M723.629 318.68V320.92H740.909V318.68H723.629Z" fill="#CCCCFF"/>
<path d="M715.095 324.44H697.602V326.787H715.095V324.44Z" fill="#CCCCFF"/>
<path d="M723.629 324.44V326.787H740.909V324.44H723.629Z" fill="#CCCCFF"/>
<path d="M715.095 330.2H697.602V332.547H715.095V330.2Z" fill="#CCCCFF"/>
<path d="M723.629 330.2V332.547H740.909V330.2H723.629Z" fill="#CCCCFF"/>
<path d="M715.095 335.96H697.602V338.307H715.095V335.96Z" fill="#CCCCFF"/>
<path d="M723.629 335.96V338.307H740.909V335.96H723.629Z" fill="#CCCCFF"/>
<path d="M715.095 341.72H697.602V344.067H715.095V341.72Z" fill="#CCCCFF"/>
<path d="M723.629 341.72V344.067H740.909V341.72H723.629Z" fill="#CCCCFF"/>
<path d="M715.095 347.48H697.602V349.827H715.095V347.48Z" fill="#CCCCFF"/>
<path d="M723.629 347.48V349.827H740.909V347.48H723.629Z" fill="#CCCCFF"/>
<path d="M715.095 353.24H697.602V355.587H715.095V353.24Z" fill="#CCCCFF"/>
<path d="M723.629 353.24V355.587H740.909V353.24H723.629Z" fill="#CCCCFF"/>
<path d="M715.095 359H697.602V361.347H715.095V359Z" fill="#CCCCFF"/>
<path d="M723.629 359V361.347H740.909V359H723.629Z" fill="#CCCCFF"/>
<path d="M723.629 364.76V367.107H740.909V364.76H723.629Z" fill="#CCCCFF"/>
<path d="M715.095 364.76H697.602V367.107H715.095V364.76Z" fill="#CCCCFF"/>
<path d="M715.095 370.52H697.602V372.867H715.095V370.52Z" fill="#CCCCFF"/>
<path d="M723.629 370.52V372.867H740.909V370.52H723.629Z" fill="#CCCCFF"/>
<path d="M675.201 312.92V339.374H641.814V312.92H675.201Z" fill="#CCCCFF"/>
<path d="M740.908 234.2V303.854H697.602V234.2H740.908Z" fill="#CCCCFF"/>
<path d="M685.761 234.2V303.854H609.494V234.2H685.761Z" fill="#CCCCFF"/>
<path d="M684.055 345.347V371.8H650.668V345.347H684.055Z" fill="#CCCCFF"/>
<path d="M1048.64 229.72V342.574H812.055V229.72H1048.64Z" fill="#CCCCFF"/>
<g style="mix-blend-mode:overlay" opacity="0.2">
<path d="M981.655 226.733L890.882 345.56H841.389L932.162 226.733H981.655Z" fill="white"/>
<path d="M1024.75 226.733L933.868 345.56H909.229L1000 226.733H1024.75Z" fill="white"/>
</g>
<path fill-rule="evenodd" clip-rule="evenodd" d="M1057.6 351H803.096V221.4H1057.6V351ZM808.429 226.84V345.667H1052.27V226.84H808.429Z" fill="#CCCCFF"/>
<path d="M789.868 421.72V575.64H574.828V421.72H789.868Z" fill="#CCCCFF"/>
<g style="mix-blend-mode:overlay" opacity="0.6">
<path d="M574.828 536.28H789.868V575.64H574.828V536.28Z" fill="#1A1A1A"/>
</g>
<g style="mix-blend-mode:overlay">
<path d="M674.349 442.52C661.015 442.52 648.109 441.134 635.842 438.254C604.269 430.894 587.415 416.494 587.309 416.387L587.629 415.854C587.842 416.067 604.589 430.36 636.055 437.614C654.615 441.987 674.455 442.947 695.255 440.814C721.175 438.04 748.482 430.04 776.535 417.24L776.749 417.774C748.695 430.68 721.282 438.574 695.255 441.347C688.144 442.129 681.175 442.52 674.349 442.52Z" fill="#1A1A1A"/>
<path d="M611.202 460.44C610.491 458.734 609.815 457.027 609.175 455.32C608.607 453.614 608.038 451.907 607.469 450.2C604.269 451.907 600.962 453.507 597.549 455C600.535 445.543 603.735 436.156 607.149 426.84C609.815 428.12 612.482 429.294 615.362 430.467C616.749 431 618.135 431.534 619.522 432.067L621.655 432.814L623.896 433.56C619.842 442.52 615.575 451.587 611.202 460.44Z" fill="#1A1A1A"/>
<path d="M640.535 468.12C638.722 465.027 636.908 461.72 635.202 458.627C633.815 459.694 632.428 460.76 630.935 461.827C629.442 463 627.948 464.067 626.455 465.134C627.735 455.249 629.193 445.436 630.828 435.694C636.695 437.294 642.668 438.574 648.748 439.534C646.188 449.134 643.451 458.662 640.535 468.12Z" fill="#1A1A1A"/>
<path d="M670.615 471.214C669.478 469.72 668.34 468.263 667.202 466.84L665.602 464.707L663.895 462.467C662.687 463.818 661.442 465.134 660.162 466.414L658.242 468.44L656.215 470.254C656.002 460.369 655.967 450.449 656.109 440.494L660.589 441.027L665.282 441.347C666.775 441.454 668.269 441.454 669.869 441.56C671.362 441.56 672.962 441.667 674.455 441.667C673.887 446.574 673.282 451.516 672.642 456.494C672.002 461.4 671.327 466.307 670.615 471.214Z" fill="#1A1A1A"/>
<path d="M700.696 469.72C699.345 468.511 698.03 467.267 696.75 465.987C695.363 464.814 694.083 463.427 692.803 462.147C691.808 463.64 690.776 465.134 689.71 466.627L688.11 468.867L686.403 471C684.696 461.187 683.168 451.374 681.816 441.56L686.51 441.347L691.096 441.027L693.443 440.814C694.154 440.742 694.901 440.671 695.683 440.6L700.27 440.067C700.554 449.951 700.696 459.836 700.696 469.72Z" fill="#1A1A1A"/>
<path d="M730.136 464.28C727.149 462.147 724.233 459.978 721.389 457.774L720.749 459.054L720.109 460.227L718.829 462.574C717.976 464.209 717.087 465.809 716.162 467.374C714.669 462.68 713.211 457.951 711.789 453.187C710.367 448.423 708.98 443.658 707.629 438.894C708.376 438.787 709.122 438.574 709.976 438.467L712.216 438.04L714.456 437.614C715.202 437.4 716.056 437.294 716.802 437.08L721.282 436.014L723.522 435.48C724.376 435.267 725.016 435.054 725.869 434.84C727.362 444.654 728.856 454.467 730.136 464.28Z" fill="#1A1A1A"/>
<path d="M758.509 455.107C755.238 453.4 752.073 451.622 749.016 449.774L748.162 452.334L747.202 454.894C746.491 456.529 745.816 458.2 745.176 459.907C740.98 450.876 736.927 441.809 733.016 432.707L737.496 431.32C738.882 430.787 740.376 430.36 741.869 429.827L746.242 428.12L748.482 427.374C749.229 427.054 749.976 426.734 750.616 426.414C753.389 436.014 756.056 445.614 758.509 455.107Z" fill="#1A1A1A"/>
</g>
<path d="M799.682 412.547H564.908V421.72H799.682V412.547Z" fill="#CCCCFF"/>
<path d="M1053.76 421.72V575.64H838.721V421.72H1053.76Z" fill="#CCCCFF"/>
<g style="mix-blend-mode:overlay" opacity="0.6">
<path d="M1053.76 536.28V575.64H838.721V536.28H1053.76Z" fill="#1A1A1A"/>
</g>
<g style="mix-blend-mode:overlay">
<path d="M938.241 442.52C925.014 442.52 912.108 441.134 899.841 438.254C868.161 430.894 851.415 416.494 851.201 416.387L851.628 415.854C851.735 416.067 868.481 430.36 900.054 437.614C918.508 441.987 938.455 442.947 959.148 440.814C985.068 438.04 1012.48 430.04 1040.43 417.24L1040.75 417.774C1012.69 430.68 985.174 438.574 959.255 441.347C952.143 442.129 945.139 442.52 938.241 442.52Z" fill="#1A1A1A"/>
<path d="M875.094 460.44C874.454 458.734 873.814 457.027 873.174 455.32C872.534 453.614 871.929 451.907 871.36 450.2C868.16 451.907 864.889 453.507 861.547 455C864.462 445.543 867.627 436.156 871.04 426.84C873.707 428.12 876.48 429.294 879.254 430.467C880.64 431 882.027 431.534 883.52 432.067L885.654 432.814L887.787 433.56C883.734 442.52 879.574 451.587 875.094 460.44Z" fill="#1A1A1A"/>
<path d="M904.534 468.12C902.614 465.027 900.908 461.72 899.201 458.627C897.708 459.694 896.321 460.76 894.828 461.827C893.441 463 891.841 464.067 890.348 465.134C891.628 455.249 893.121 445.436 894.828 435.694C900.694 437.294 906.668 438.574 912.748 439.534C910.188 449.134 907.45 458.662 904.534 468.12Z" fill="#1A1A1A"/>
<path d="M934.507 471.214C933.37 469.72 932.232 468.263 931.094 466.84L929.494 464.707L927.894 462.467C926.685 463.818 925.441 465.134 924.161 466.414L922.134 468.44L920.214 470.254C919.93 460.369 919.859 450.449 920.001 440.494L924.587 441.027L929.174 441.347C930.667 441.454 932.267 441.454 933.761 441.56C935.361 441.56 936.854 441.667 938.454 441.667C937.885 446.574 937.281 451.516 936.641 456.494C936.001 461.4 935.29 466.307 934.507 471.214Z" fill="#1A1A1A"/>
<path d="M964.588 469.72C963.237 468.511 961.921 467.267 960.641 465.987C959.361 464.814 958.081 463.427 956.801 462.147C955.806 463.64 954.739 465.134 953.601 466.627L952.001 468.867L950.294 471C948.659 461.187 947.166 451.374 945.814 441.56L950.401 441.347L954.988 441.027L957.334 440.814C958.117 440.742 958.899 440.671 959.681 440.6L964.268 440.067C964.552 449.951 964.659 459.836 964.588 469.72Z" fill="#1A1A1A"/>
<path d="M994.027 464.28C991.04 462.147 988.125 459.978 985.28 457.774L984.747 459.054L984.107 460.227L982.827 462.574C981.974 464.209 981.085 465.809 980.16 467.374C978.667 462.68 977.209 457.951 975.787 453.187C974.365 448.423 972.978 443.658 971.627 438.894C972.374 438.787 973.12 438.574 973.867 438.467L976.107 438.04L978.454 437.614C979.2 437.4 979.947 437.294 980.694 437.08L985.28 436.014L987.52 435.48C988.267 435.267 989.014 435.054 989.76 434.84C991.36 444.654 992.747 454.467 994.027 464.28Z" fill="#1A1A1A"/>
<path d="M1022.4 455.107C1019.2 453.4 1016.07 451.622 1013.01 449.774L1012.05 452.334L1011.09 454.894C1010.45 456.529 1009.78 458.2 1009.07 459.907C1004.87 450.876 1000.82 441.809 996.906 432.707L1001.39 431.32C1002.88 430.787 1004.37 430.36 1005.87 429.827L1010.24 428.12L1012.48 427.374C1013.12 427.054 1013.87 426.734 1014.61 426.414C1017.39 436.014 1019.95 445.614 1022.4 455.107Z" fill="#1A1A1A"/>
</g>
<path d="M1063.68 412.547H828.801V421.72H1063.68V412.547Z" fill="#CCCCFF"/>
<path d="M544.854 80.3867H535.574V575.64H544.854V80.3867Z" fill="#CCCCFF"/>
<path d="M1088.64 80.3867H1079.36V575.64H1088.64V80.3867Z" fill="#CCCCFF"/>
<g style="mix-blend-mode:overlay">
<path d="M629.868 166.467C616.321 166.467 603.201 165.08 590.828 162.2C558.721 154.733 541.655 140.12 541.441 139.907L541.868 139.48C542.081 139.587 559.041 154.2 591.041 161.56C609.708 165.933 629.975 167 650.988 164.76C677.335 161.88 705.068 153.88 733.441 140.867L733.761 141.4C705.281 154.52 677.441 162.52 650.988 165.4C643.806 166.111 636.766 166.467 629.868 166.467Z" fill="#1A1A1A"/>
<path d="M565.761 184.707C565.05 182.929 564.375 181.187 563.735 179.48C563.095 177.702 562.49 175.96 561.921 174.253C558.721 175.96 555.379 177.596 551.895 179.16C554.881 169.56 558.117 160.031 561.601 150.573C564.268 151.853 567.148 153.133 569.921 154.2C571.308 154.84 572.801 155.373 574.188 155.907L576.428 156.653L578.561 157.4C574.508 166.573 570.241 175.747 565.761 184.707Z" fill="#1A1A1A"/>
<path d="M595.522 192.493C593.602 189.293 591.895 185.987 590.188 182.787C588.695 183.96 587.202 185.027 585.708 186.093C584.322 187.267 582.722 188.333 581.229 189.4C582.509 179.373 584.002 169.418 585.708 159.533C591.682 161.133 597.762 162.52 603.842 163.48C601.282 173.151 598.508 182.822 595.522 192.493Z" fill="#1A1A1A"/>
<path d="M626.028 195.587C624.819 194.094 623.681 192.636 622.615 191.214L620.908 188.974L619.308 186.734C618.028 188.085 616.748 189.436 615.468 190.787L613.441 192.707L611.415 194.627C611.201 184.6 611.166 174.538 611.308 164.44L615.895 164.974L620.588 165.294C622.081 165.4 623.681 165.507 625.281 165.507C626.775 165.507 628.375 165.614 629.975 165.614C629.406 170.662 628.801 175.676 628.161 180.654C627.45 185.631 626.739 190.609 626.028 195.587Z" fill="#1A1A1A"/>
<path d="M656.535 194.093C655.184 192.885 653.833 191.64 652.481 190.36C651.201 189.08 649.921 187.693 648.641 186.413C647.575 187.907 646.508 189.4 645.441 190.893L643.735 193.133L642.028 195.373C640.321 185.418 638.793 175.462 637.441 165.507L642.135 165.293L646.828 164.973L649.175 164.76C649.957 164.689 650.739 164.618 651.521 164.547L656.108 164.013C656.393 174.04 656.535 184.067 656.535 194.093Z" fill="#1A1A1A"/>
<path d="M686.401 188.547C683.343 186.414 680.392 184.245 677.548 182.04L676.908 183.214L676.268 184.494L674.988 186.84C674.134 188.476 673.245 190.111 672.321 191.747C670.756 186.911 669.263 182.111 667.841 177.347C666.419 172.511 664.996 167.676 663.574 162.84C664.428 162.734 665.174 162.52 665.921 162.414L668.268 161.987L670.508 161.454C671.361 161.347 672.108 161.24 672.854 161.027L677.441 159.854L679.788 159.32C680.534 159.107 681.281 158.894 682.028 158.68C683.628 168.6 685.121 178.627 686.401 188.547Z" fill="#1A1A1A"/>
<path d="M715.201 179.267C711.93 177.489 708.73 175.676 705.601 173.827L704.641 176.493L703.681 178.947C703.041 180.653 702.366 182.396 701.655 184.173C697.388 175 693.263 165.791 689.281 156.547L693.868 155.16C695.361 154.627 696.855 154.2 698.348 153.56L702.828 151.96L705.068 151.107C705.815 150.787 706.455 150.467 707.201 150.147C709.975 159.853 712.641 169.56 715.201 179.267Z" fill="#1A1A1A"/>
</g>
<g style="mix-blend-mode:overlay">
<path d="M803.628 166.467C790.081 166.467 776.961 165.08 764.588 162.2C732.481 154.733 715.415 140.12 715.201 139.907L715.628 139.48C715.841 139.587 732.801 154.2 764.801 161.56C783.468 165.933 803.735 167 824.748 164.76C851.095 161.88 878.828 153.88 907.201 140.867L907.521 141.4C879.041 154.52 851.201 162.52 824.748 165.4C817.566 166.111 810.526 166.467 803.628 166.467Z" fill="#1A1A1A"/>
<path d="M739.521 184.707C738.81 182.929 738.134 181.187 737.494 179.48C736.854 177.702 736.25 175.96 735.681 174.253C732.481 175.96 729.139 177.596 725.654 179.16C728.641 169.56 731.877 160.031 735.361 150.573C738.028 151.853 740.908 153.133 743.681 154.2C745.174 154.84 746.561 155.373 747.948 155.907L750.188 156.653L752.321 157.4C748.268 166.573 744.001 175.747 739.521 184.707Z" fill="#1A1A1A"/>
<path d="M769.282 192.493C767.362 189.293 765.655 185.987 763.948 182.787C762.455 183.96 760.962 185.027 759.468 186.093C758.082 187.267 756.482 188.333 754.988 189.4C756.268 179.373 757.762 169.418 759.468 159.533C765.442 161.133 771.522 162.52 777.602 163.48C775.042 173.151 772.268 182.822 769.282 192.493Z" fill="#1A1A1A"/>
<path d="M799.788 195.587C798.579 194.094 797.441 192.636 796.374 191.214L794.668 188.974L793.068 186.734C791.788 188.085 790.508 189.436 789.228 190.787L787.201 192.707L785.174 194.627C784.961 184.6 784.926 174.538 785.068 164.44L789.654 164.974L794.348 165.294C795.841 165.4 797.441 165.507 799.041 165.507C800.534 165.507 802.134 165.614 803.734 165.614C803.166 170.662 802.561 175.676 801.921 180.654C801.21 185.631 800.499 190.609 799.788 195.587Z" fill="#1A1A1A"/>
<path d="M830.295 194.093C828.943 192.885 827.592 191.64 826.241 190.36C824.961 189.08 823.681 187.693 822.401 186.413C821.335 187.907 820.268 189.4 819.201 190.893L817.495 193.133L815.788 195.373C814.081 185.418 812.552 175.462 811.201 165.507L815.895 165.293L820.588 164.973L822.935 164.76C823.717 164.689 824.499 164.618 825.281 164.547L829.868 164.013C830.152 174.04 830.295 184.067 830.295 194.093Z" fill="#1A1A1A"/>
<path d="M860.161 188.547C857.103 186.414 854.152 184.245 851.307 182.04L850.667 183.214L850.027 184.494L848.747 186.84C847.894 188.476 847.005 190.111 846.081 191.747C844.516 186.911 843.023 182.111 841.601 177.347C840.178 172.511 838.756 167.676 837.334 162.84C838.187 162.734 838.934 162.52 839.681 162.414L842.027 161.987L844.267 161.454C845.121 161.347 845.867 161.24 846.614 161.027L851.201 159.854L853.547 159.32C854.294 159.107 855.041 158.894 855.787 158.68C857.387 168.6 858.881 178.627 860.161 188.547Z" fill="#1A1A1A"/>
<path d="M888.961 179.267C885.69 177.489 882.49 175.676 879.361 173.827L878.401 176.493L877.441 178.947C876.801 180.653 876.125 182.396 875.414 184.173C871.148 175 867.023 165.791 863.041 156.547L867.628 155.16C869.121 154.627 870.614 154.2 872.108 153.56L876.588 151.96L878.828 151.107C879.574 150.787 880.214 150.467 880.961 150.147C883.734 159.853 886.401 169.56 888.961 179.267Z" fill="#1A1A1A"/>
</g>
<g style="mix-blend-mode:overlay">
<path d="M977.388 166.467C963.841 166.467 950.721 165.08 938.348 162.2C906.241 154.733 889.174 140.12 888.961 139.907L889.388 139.48C889.601 139.587 906.561 154.2 938.561 161.56C957.228 165.933 977.494 167 998.508 164.76C1024.85 161.88 1052.59 153.88 1080.96 140.867L1081.28 141.4C1052.8 154.52 1024.96 162.52 998.508 165.4C991.325 166.111 984.285 166.467 977.388 166.467Z" fill="#1A1A1A"/>
<path d="M913.281 184.707C912.57 182.929 911.894 181.187 911.254 179.48C910.614 177.702 910.01 175.96 909.441 174.253C906.241 175.96 902.899 177.596 899.414 179.16C902.401 169.56 905.636 160.031 909.121 150.573C911.787 151.853 914.667 153.133 917.441 154.2C918.934 154.84 920.321 155.373 921.707 155.907L923.947 156.653L926.081 157.4C922.027 166.573 917.761 175.747 913.281 184.707Z" fill="#1A1A1A"/>
<path d="M943.041 192.493C941.121 189.293 939.415 185.987 937.708 182.787C936.215 183.96 934.721 185.027 933.228 186.093C931.841 187.267 930.241 188.333 928.748 189.4C930.028 179.373 931.521 169.418 933.228 159.533C939.201 161.133 945.281 162.52 951.361 163.48C948.801 173.151 946.028 182.822 943.041 192.493Z" fill="#1A1A1A"/>
<path d="M973.548 195.587C972.339 194.094 971.201 192.636 970.134 191.214L968.428 188.974L966.828 186.734C965.548 188.085 964.267 189.436 962.987 190.787L960.961 192.707L958.934 194.627C958.721 184.6 958.685 174.538 958.828 164.44L963.414 164.974L968.107 165.294C969.601 165.4 971.201 165.507 972.801 165.507C974.294 165.507 975.894 165.614 977.494 165.614C976.925 170.662 976.321 175.676 975.681 180.654C974.97 185.631 974.259 190.609 973.548 195.587Z" fill="#1A1A1A"/>
<path d="M1004.05 194.093C1002.7 192.885 1001.35 191.64 1000 190.36C998.721 189.08 997.441 187.693 996.161 186.413C995.094 187.907 994.028 189.4 992.961 190.893L991.254 193.133L989.548 195.373C987.841 185.418 986.312 175.462 984.961 165.507L989.654 165.293L994.348 164.973L996.694 164.76C997.476 164.689 998.259 164.618 999.041 164.547L1003.63 164.013C1003.98 174.04 1004.13 184.067 1004.05 194.093Z" fill="#1A1A1A"/>
<path d="M1033.92 188.547C1030.86 186.414 1027.91 184.245 1025.07 182.04L1024.43 183.214L1023.79 184.494L1022.51 186.84C1021.65 188.476 1020.76 190.111 1019.84 191.747C1018.28 186.911 1016.78 182.111 1015.36 177.347C1013.94 172.511 1012.52 167.676 1011.09 162.84C1011.95 162.734 1012.69 162.52 1013.44 162.414L1015.79 161.987L1018.03 161.454C1018.88 161.347 1019.63 161.24 1020.37 161.027L1024.96 159.854L1027.31 159.32C1028.05 159.107 1028.8 158.894 1029.55 158.68C1031.15 168.6 1032.64 178.627 1033.92 188.547Z" fill="#1A1A1A"/>
<path d="M1062.72 179.267C1059.45 177.489 1056.25 175.676 1053.12 173.827L1052.16 176.493L1051.2 178.947C1050.56 180.653 1049.89 182.396 1049.17 184.173C1044.91 175 1040.78 165.791 1036.8 156.547L1041.39 155.16C1042.88 154.627 1044.37 154.2 1045.87 153.56L1050.35 151.96L1052.59 151.107C1053.33 150.787 1053.97 150.467 1054.72 150.147C1057.49 159.853 1060.16 169.56 1062.72 179.267Z" fill="#1A1A1A"/>
</g>
<path d="M1088.64 144.813H535.574V80.3867L1088.64 30.1467V144.813Z" fill="#CCCCFF"/>
<g style="mix-blend-mode:overlay" opacity="0.6">
<path d="M1158.29 642.627C1158.29 653.187 1044.37 661.72 903.894 661.72C763.414 661.72 649.494 653.187 649.494 642.627C649.494 632.067 763.414 623.533 903.894 623.533C1044.37 623.533 1158.29 632.067 1158.29 642.627Z" fill="#1A1A1A"/>
</g>
<path d="M826.134 426.2C819.628 435.8 826.561 435.907 826.561 435.907L828.908 433.133C827.841 434.947 827.308 436.44 827.308 437.72C826.988 441.773 831.041 442.947 831.041 442.947L832.854 439.427C832.428 440.92 832.214 442.093 832.321 443.16C832.641 447 836.374 448.067 836.374 448.067C836.374 448.067 844.054 434.413 844.161 432.813C844.268 431.213 842.774 421.72 842.774 421.72L846.828 430.467C846.828 430.467 845.974 431.747 844.694 439.533C843.521 447.213 850.668 449.453 850.668 449.453C850.881 447.853 855.148 430.893 855.041 429.933C855.041 428.867 849.708 411.8 848.108 409.987C846.508 408.173 832.108 403.053 832.108 403.053L826.774 399.107L815.681 406.147C813.441 419.48 826.134 426.2 826.134 426.2Z" fill="#FFB295"/>
<g style="mix-blend-mode:multiply" opacity="0.7">
<path d="M832.32 443.16L837.76 431.747L836.8 422.467C836.8 423 837.014 430.147 836.694 431.427C836.374 432.6 832.853 439.427 832.853 439.427C832.427 440.92 832.213 442.093 832.32 443.16Z" fill="#FFC0C4"/>
</g>
<g style="mix-blend-mode:multiply" opacity="0.7">
<path d="M827.309 437.72C828.695 435.48 832.749 428.973 832.749 428.013C832.749 426.947 831.469 422.68 831.362 422.147C831.469 422.68 832.322 427.053 831.895 428.013C831.362 428.973 828.909 433.133 828.909 433.133C827.842 434.947 827.309 436.44 827.309 437.72Z" fill="#FFC0C4"/>
</g>
<path d="M819.201 283.16C815.468 266.2 794.348 261.187 794.348 261.187C794.348 261.187 770.668 341.72 772.055 356.013C773.548 370.413 816.855 410.733 816.855 410.733L828.908 405.613L832.748 400.28L806.508 354.947C806.508 354.947 819.201 301.4 819.201 283.16Z" fill="#FFB295"/>
<path d="M893.762 450.734L867.309 394.094L795.309 427.694L819.629 487L893.762 450.734Z" fill="#F25424"/>
<g style="mix-blend-mode:overlay" opacity="0.4">
<path d="M893.762 450.734L867.309 394.094L795.309 427.694L819.629 487L893.762 450.734Z" fill="#1A1A1A"/>
</g>
<path d="M867.415 397.08L894.082 450.733L820.268 487.747L794.988 430.04L867.415 397.08Z" fill="#FBB03B"/>
<g style="mix-blend-mode:overlay" opacity="0.3">
<path d="M822.189 484.227L867.096 399.747L800.855 429.933L822.189 484.227Z" fill="#1A1A1A"/>
</g>
<path d="M827.521 396.76C827.521 396.76 840.108 400.92 842.561 403.267C845.014 405.613 850.881 422.147 850.881 422.147C850.881 422.147 844.054 426.627 839.894 419.16C838.828 417.133 837.121 413.933 837.121 413.933C837.121 413.933 824.214 418.413 818.881 405.827C818.881 405.827 819.948 399.32 827.521 396.76Z" fill="#FFB295"/>
<path d="M806.508 354.947C806.508 354.947 818.028 305.987 819.095 285.72C819.201 284.333 819.308 283.053 819.201 282.093C818.241 273.56 810.775 258.84 807.575 257.987L794.348 261.187C794.348 261.187 770.668 341.72 772.055 356.013C773.548 370.413 810.028 409.133 810.028 409.133L830.721 391.96L806.508 354.947Z" fill="#7989F7"/>
<g style="mix-blend-mode:overlay" opacity="0.3">
<path d="M806.508 354.947C806.508 354.947 812.268 330.307 816.108 308.76C815.255 303.711 814.401 298.662 813.548 293.614C812.375 287 811.095 280.387 809.921 273.774C809.281 270.467 808.748 267.16 808.108 263.854C807.681 261.934 807.255 260.12 806.935 258.2L794.348 261.187C794.348 261.187 770.668 341.72 772.055 356.014C773.548 370.414 810.028 409.134 810.028 409.134L830.721 391.96L806.508 354.947Z" fill="#1A1A1A"/>
</g>
<path d="M810.028 364.44L824.748 620.654C824.748 620.654 790.188 625.24 773.974 620.654L768.748 430.574L754.774 620.654C754.774 620.654 723.521 614.04 705.814 607.64L722.668 375.32L810.028 364.44Z" fill="#1A1A1A"/>
<path d="M862.4 644.12H770.986L771.52 635.693L772.8 616.067L773.653 602.947C801.28 604.227 823.68 602.947 823.68 602.947L824.746 618.2C824.746 618.2 858.24 626.413 861.013 635.693C862.4 640.387 862.4 644.12 862.4 644.12Z" fill="#F25424"/>
<path d="M770.986 644.12H795.946H806.613H862.4C862.4 644.12 862.4 640.387 861.013 635.693H771.52L770.986 644.12Z" fill="white"/>
<g style="mix-blend-mode:multiply" opacity="0.1">
<path d="M803.84 644.12H770.986L771.52 635.694L772.8 616.067C773.12 616.174 792 625.56 797.866 629.4C803.84 633.24 803.84 644.12 803.84 644.12Z" fill="#1A1A1A"/>
</g>
<path d="M703.254 644.12H728.214H738.987H794.667C794.667 644.12 794.667 640.387 793.281 635.693C790.507 626.413 757.014 618.2 757.014 618.2L755.947 602.947C755.947 602.947 733.547 604.227 705.921 602.947L703.787 635.693L703.254 644.12Z" fill="#F25424"/>
<path d="M703.254 644.12H728.214H738.987H794.667C794.667 644.12 794.667 640.387 793.281 635.693H703.787L703.254 644.12Z" fill="white"/>
<path d="M812.161 394.627C807.574 397.933 748.694 405.08 720.641 392.707L720.961 323.267L721.067 294.467V287.853L721.814 254.147C721.814 254.147 725.121 252.973 734.187 249.453C736.961 248.387 739.734 247.32 742.401 246.36C745.281 245.187 748.054 244.227 750.187 243.373C753.281 242.2 755.414 241.453 755.947 241.347C755.947 241.347 772.054 241.453 776.641 241.453L788.481 247.747L807.574 257.987L808.321 297.56L810.027 342.04L810.987 367L812.161 394.627Z" fill="#7989F7"/>
<path d="M755.947 241.347C756.694 244.653 776.534 258.2 776.534 258.2L783.574 245.187L783.361 244.227L781.334 233.56C780.978 232.209 780.41 230.964 779.627 229.827C778.561 228.013 777.067 226.413 775.361 224.92C767.894 218.307 756.801 212.867 756.801 212.867L755.947 241.347Z" fill="#FFB295"/>
<path d="M776.534 258.2L768.001 270.893L750.188 243.16L755.948 239.32L776.534 258.2Z" fill="white"/>
<path d="M783.468 244.653L776.535 258.2L788.055 269.507L788.482 247.533L783.468 244.653Z" fill="white"/>
<g style="mix-blend-mode:multiply" opacity="0.7">
<path d="M756.375 223.64C756.375 223.64 765.122 243.053 783.575 245.187L781.335 233.56C780.979 232.209 780.411 230.965 779.628 229.827C777.815 228.12 776.322 226.733 775.468 226.093L756.375 223.64Z" fill="#FFB295"/>
</g>
<path d="M755.842 222.467C760.535 229.507 775.148 241.88 785.175 241.133C789.762 240.92 798.615 233.773 802.882 226.627C803.842 224.813 804.268 221.827 804.375 218.413C804.375 217.418 804.375 216.387 804.375 215.32C804.268 212.76 804.055 209.987 803.735 207.32C803.735 207.178 803.699 207.036 803.628 206.893C802.775 199.32 801.282 192.28 800.855 190.787C799.042 185.24 789.868 181.827 780.162 181.827C760.962 181.613 758.082 191.107 758.082 191.107C757.335 193.24 756.375 193.773 754.882 199.533C752.535 208.813 752.962 218.2 755.842 222.467Z" fill="#FFB295"/>
<g style="mix-blend-mode:multiply" opacity="0.7">
<path d="M775.041 217.773C775.041 217.773 772.588 219.587 770.028 218.947C767.575 218.413 765.975 215.747 765.975 215.747C765.975 215.747 768.535 214.04 770.988 214.573C773.548 215.107 775.041 217.773 775.041 217.773Z" fill="#FFB295"/>
</g>
<g style="mix-blend-mode:multiply" opacity="0.7">
<path d="M799.361 217.774C799.361 217.774 801.281 219.16 803.308 218.734C803.663 218.662 804.019 218.556 804.375 218.414C804.375 217.418 804.375 216.387 804.375 215.32C803.841 215.214 803.201 215.214 802.561 215.32C800.641 215.747 799.361 217.774 799.361 217.774Z" fill="#FFB295"/>
</g>
<path d="M795.734 213.294C795.734 215.427 796.481 217.134 797.441 217.24C798.401 217.24 799.254 215.427 799.254 213.294C799.254 211.16 798.401 209.454 797.441 209.454C796.481 209.454 795.734 211.16 795.734 213.294Z" fill="#1A1A1A"/>
<path d="M778.668 212.867C778.668 215 779.521 216.707 780.481 216.707C781.441 216.707 782.188 215 782.188 212.867C782.188 210.734 781.441 209.027 780.481 209.027C779.521 209.027 778.668 210.734 778.668 212.867Z" fill="#1A1A1A"/>
<path d="M794.135 224.707C794.135 224.707 785.495 227.267 777.602 221.614C777.602 221.614 777.602 229.08 783.895 230.04C790.295 231.107 793.068 227.054 794.135 224.707Z" fill="white"/>
<path d="M783.254 206.04C783.254 206.04 776.001 202.414 769.814 209.667C769.814 209.667 776.321 196.547 783.254 206.04Z" fill="#1A1A1A"/>
<path d="M794.668 205.827C794.668 205.827 799.361 203.267 803.735 207.32C803.735 207.178 803.699 207.036 803.628 206.894C802.028 204.547 797.975 199.96 794.668 205.827Z" fill="#1A1A1A"/>
<g style="mix-blend-mode:multiply" opacity="0.7">
<path d="M788.588 217.133C789.157 216.991 789.69 216.849 790.188 216.707C790.757 216.636 791.29 216.6 791.788 216.6C792.072 216.529 792.321 216.529 792.535 216.6C792.748 216.6 792.961 216.707 793.068 216.813C793.175 217.027 793.281 217.24 793.281 217.453C793.281 217.667 793.281 217.916 793.281 218.2C793.068 219.16 792.641 220.12 791.895 220.867C791.148 221.613 790.188 221.933 789.015 222.04C789.583 222.111 790.152 222.111 790.721 222.04C791.006 221.969 791.29 221.862 791.575 221.72C791.788 221.578 792.037 221.436 792.321 221.293C793.175 220.547 793.815 219.48 793.921 218.307C793.992 218.022 793.992 217.702 793.921 217.347C793.921 217.276 793.921 217.205 793.921 217.133C793.85 217.062 793.815 216.991 793.815 216.92C793.815 216.849 793.779 216.778 793.708 216.707C793.637 216.636 793.601 216.565 793.601 216.493L793.495 216.387C793.423 216.316 793.388 216.28 793.388 216.28C793.317 216.209 793.246 216.173 793.175 216.173C793.175 216.173 793.139 216.173 793.068 216.173C792.926 216.102 792.783 216.067 792.641 216.067C792.357 215.996 792.072 215.996 791.788 216.067C791.148 216.067 790.615 216.28 790.081 216.387C789.583 216.6 789.086 216.849 788.588 217.133Z" fill="#FFB295"/>
</g>
<path d="M758.616 209.56C758.616 209.56 764.909 208.6 765.016 201.24C765.016 201.24 782.189 201.773 792.216 196.547C792.109 198.787 787.736 201.24 784.002 203.907C790.296 203.373 807.042 199.32 808.216 194.093C809.389 188.867 795.309 168.28 778.669 167.533C762.029 166.787 757.229 177.56 757.229 177.56C757.229 177.56 753.496 177.027 750.402 180.653C747.309 184.28 750.082 201.453 750.082 201.453C750.082 201.453 754.562 204.12 755.202 208.067L755.949 220.973L758.616 209.56Z" fill="#1A1A1A"/>
<path d="M755.628 208.707C755.628 208.707 753.282 200.707 748.268 200.707C743.255 200.6 743.362 226.84 755.628 216.92V208.707Z" fill="#FFB295"/>
<g style="mix-blend-mode:multiply" opacity="0.7">
<path d="M754.241 212.867C754.134 212.867 754.028 212.76 754.028 212.653C754.028 212.653 753.601 210.733 752.428 210.2C751.859 209.916 751.219 210.022 750.508 210.52C750.294 210.52 750.188 210.52 750.081 210.413C749.974 210.2 749.974 210.093 750.188 209.987C751.112 209.418 751.93 209.276 752.641 209.56C752.854 209.702 753.032 209.809 753.174 209.88C752.428 208.493 751.468 207.533 750.401 207.533C749.761 207.604 749.228 207.96 748.801 208.6C748.481 209.027 748.374 209.56 748.374 209.56C748.268 209.773 748.161 209.88 747.948 209.773C747.734 209.773 747.734 209.56 747.734 209.453C747.734 209.347 748.481 207 750.401 207C752.321 206.893 754.241 209.453 754.561 212.547C754.561 212.76 754.454 212.867 754.348 212.867C754.348 212.867 754.312 212.867 754.241 212.867Z" fill="#FFB295"/>
</g>
<path d="M1100.59 607.64C1082.88 613.934 1050.24 602.947 1050.24 602.947L1036.59 428.867L1031.57 620.654C1015.36 625.24 980.801 620.654 980.801 620.654L992.961 409.134L995.521 364.44H1079.57L1082.45 398.147L1100.59 607.64Z" fill="#2D3195"/>
<g style="mix-blend-mode:overlay" opacity="0.3">
<path d="M1082.45 398.147C1043.52 417.027 992.961 409.134 992.961 409.134L995.521 364.44H1079.57L1082.45 398.147Z" fill="#1A1A1A"/>
</g>
<path d="M1034.56 644.12H1009.6H998.828H943.041C943.041 644.12 943.041 640.387 944.534 635.693C947.308 626.413 955.734 613.293 980.801 618.2L981.868 602.947C981.868 602.947 1004.27 604.227 1031.89 602.947L1033.92 635.693L1034.56 644.12Z" fill="#1A1A1A"/>
<path d="M1034.56 644.12H1009.6H998.828H943.041C943.041 644.12 943.041 640.387 944.534 635.693H1033.92L1034.56 644.12Z" fill="white"/>
<path d="M1102.93 644.12H1077.97H1067.31H1011.52C1011.52 644.12 1011.52 640.387 1012.91 635.693C1015.79 626.413 1024.21 613.293 1049.28 618.2L1050.24 602.947C1050.24 602.947 1072.75 604.227 1100.37 602.947L1102.4 635.693L1102.93 644.12Z" fill="#1A1A1A"/>
<path d="M1102.93 644.12H1077.97H1067.31H1011.52C1011.52 644.12 1011.52 640.387 1012.91 635.693H1102.4L1102.93 644.12Z" fill="white"/>
<path d="M924.375 337.24C908.909 332.973 896.749 329.347 896.749 329.347L895.469 347.587C895.469 347.587 906.135 351.32 920.535 356.333C921.922 349.933 923.309 343.64 924.375 337.24Z" fill="#FFB295"/>
<path d="M899.308 344.813C899.308 344.813 893.441 354.2 888.855 355.907C884.481 357.293 880.321 356.227 880.321 356.227L872.748 332.12C872.748 332.12 876.481 326.787 877.015 327C877.548 327.213 896.748 329.347 896.748 329.347L899.308 344.813Z" fill="#FFB295"/>
<g style="mix-blend-mode:multiply" opacity="0.7">
<path d="M897.601 347.267C895.575 350.253 891.948 354.733 888.855 355.907C884.481 357.293 880.321 356.227 880.321 356.227L872.748 332.12C872.748 332.12 876.481 326.787 877.015 327C877.548 327.213 894.295 337.133 894.295 337.133C894.295 337.133 898.028 341.08 897.601 347.267Z" fill="#FFB295"/>
</g>
<path d="M819.201 334.36C834.988 331.16 858.348 327.32 858.348 327.32L855.041 349.933L821.228 356.333C821.228 356.333 819.841 340.76 819.201 334.36Z" fill="#FFB295"/>
<path d="M895.895 339.587C895.468 339.16 877.975 326.467 871.468 326.04C865.068 325.613 858.348 327.32 858.348 327.32C856.108 328.6 844.588 333.4 844.588 339.48C844.588 345.667 854.188 353.027 858.668 355.053C859.166 355.267 859.628 355.445 860.055 355.587C860.126 355.587 860.197 355.622 860.268 355.693C865.068 358.36 875.415 360.6 882.561 361.133C886.508 361.453 889.388 361.24 889.921 360.28C890.775 357.613 888.215 357.08 888.108 356.973C888.215 356.973 892.801 358.893 894.615 356.547C895.681 355.267 895.041 353.027 894.828 352.813C894.828 352.813 895.788 352.813 896.748 352.387C897.175 352.173 897.601 351.853 897.815 351.427C898.241 349.933 897.815 348.867 897.281 348.227C896.961 347.587 896.428 347.267 896.535 347.053C896.606 347.053 896.712 347.053 896.855 347.053C897.601 347.053 899.415 346.947 899.841 345.56C900.268 344.387 898.988 341.613 895.895 339.587Z" fill="#FFB295"/>
<g style="mix-blend-mode:multiply" opacity="0.7">
<path d="M888.321 357.08C888.321 357.08 889.388 357.293 889.921 358.36L882.135 355.16L888.321 357.08Z" fill="#FFB295"/>
</g>
<g style="mix-blend-mode:multiply" opacity="0.7">
<path d="M882.988 348.333L894.828 352.814C894.828 352.814 895.788 352.813 896.748 352.387L882.988 348.333Z" fill="#FFB295"/>
</g>
<g style="mix-blend-mode:multiply" opacity="0.7">
<path d="M896.535 347.054C896.428 347.267 896.961 347.587 897.281 348.227L897.495 348.547L895.575 347.694L885.441 342.787L896.535 347.054Z" fill="#FFB295"/>
</g>
<g style="mix-blend-mode:multiply" opacity="0.7">
<path d="M870.187 334.04L867.094 335.534C867.094 335.534 875.307 343.96 885.867 332.76L881.6 330.2L870.187 334.04Z" fill="#FFB295"/>
</g>
<path d="M896.747 329.347C896.747 329.347 888.96 324.653 880.96 322.947C877.44 324.12 868.8 330.947 867.094 335.533C872.107 339.16 880.32 336.28 883.627 331.267C883.627 331.267 889.92 333.827 898.454 339.48L896.747 329.347Z" fill="#FFB295"/>
<g style="mix-blend-mode:multiply" opacity="0.7">
<path d="M881.814 361.133C874.774 360.6 864.32 358.36 859.627 355.693C859.698 355.622 859.769 355.516 859.84 355.373C859.84 355.373 864.214 347.374 866.027 348.014C867.414 348.44 867.52 350.253 867.52 351C867.52 351.142 867.556 351.249 867.627 351.32C867.734 351.32 868.054 350.893 868.694 350.467C868.765 350.396 868.871 350.325 869.014 350.253C869.654 349.933 870.614 349.613 871.894 350.04C872.32 350.253 872.64 350.573 872.854 351.107C873.067 351.427 873.174 351.853 873.174 352.173C873.28 352.6 873.28 352.92 873.28 352.92C873.494 352.707 875.734 350.893 877.014 351.853C878.294 353.027 878.4 355.8 878.4 355.907C878.507 355.907 878.827 355.48 879.254 355.053C879.396 354.911 879.574 354.805 879.787 354.733C880.214 354.52 880.854 354.413 881.387 354.84C882.027 355.373 882.347 358.573 881.814 361.133Z" fill="#FFB295"/>
</g>
<path d="M879.04 364.974C878.08 365.614 876.907 365.187 875.734 364.227C873.067 366.68 868.694 365.4 868.16 363.374C866.027 366.04 862.72 363.48 862.294 361.347C858.454 361.347 856.534 359.32 858.667 355.8C858.667 355.8 863.04 347.8 864.854 348.44C866.24 348.974 866.347 350.68 866.347 351.427C866.347 351.64 866.382 351.747 866.454 351.747C866.56 351.854 866.88 351.427 867.52 351C867.591 350.929 867.698 350.822 867.84 350.68C868.48 350.36 869.44 350.04 870.72 350.467C871.147 350.68 871.574 351.107 871.787 351.534C872.214 352.387 872.107 353.454 872.107 353.454V353.347C872.32 353.24 874.56 351.32 875.84 352.387C877.12 353.454 877.227 356.334 877.334 356.334C877.334 356.334 877.867 355.587 878.614 355.16C879.147 354.947 879.68 354.84 880.214 355.374C881.28 356.12 881.494 363.16 879.04 364.974Z" fill="#FFB295"/>
<g style="mix-blend-mode:multiply" opacity="0.7">
<path d="M878.614 355.16L875.627 363.8L877.334 356.333C877.334 356.333 877.867 355.587 878.614 355.16Z" fill="#FFB295"/>
</g>
<g style="mix-blend-mode:multiply" opacity="0.7">
<path d="M871.681 351.534H871.788C872.214 352.387 872.108 353.454 872.108 353.454L868.268 362.84L871.681 351.534Z" fill="#FFB295"/>
</g>
<g style="mix-blend-mode:multiply" opacity="0.7">
<path d="M867.841 350.68L862.721 360.6C862.934 360.173 866.347 351.747 866.454 351.747C866.561 351.854 866.881 351.427 867.521 351C867.592 350.929 867.698 350.822 867.841 350.68Z" fill="#FFB295"/>
</g>
<path d="M909.654 355.587L902.188 353.133C902.188 353.133 898.028 341.08 907.948 329.453L917.974 333.187L909.654 355.587Z" fill="white"/>
<path d="M995.202 385.56C994.135 386.129 992.784 386.485 991.148 386.627C989.228 386.84 986.882 386.84 984.215 386.52C958.828 383.32 908.908 357.187 908.908 357.187C901.868 343.96 914.988 329.773 914.988 329.773L972.908 345.56C972.908 345.56 991.895 266.413 994.242 260.013L1010.88 321.56C1010.88 321.56 1011.74 377.453 995.202 385.56Z" fill="#2D3195"/>
<g style="mix-blend-mode:overlay" opacity="0.3">
<path d="M997.228 297.56L991.148 386.627C989.228 386.84 986.882 386.84 984.215 386.52L997.228 297.56Z" fill="#1A1A1A"/>
</g>
<g style="mix-blend-mode:overlay" opacity="0.3">
<path d="M810.988 367C797.868 370.094 767.361 376.174 756.374 371.054C746.028 366.254 729.281 338.2 720.961 323.267L721.068 294.467L751.254 277.614L782.188 328.067L810.028 327.214V342.04L810.988 367Z" fill="#1A1A1A"/>
</g>
<path d="M748.481 272.6C753.068 279.747 780.481 332.76 780.481 332.76L842.561 326.574C842.561 326.574 854.295 342.04 845.975 354.414C845.975 354.414 775.681 375.32 760.108 365.507C744.535 355.8 716.268 294.254 716.268 294.254C716.268 294.254 705.601 276.014 716.268 259.374C726.935 242.734 744.001 265.454 748.481 272.6Z" fill="#7989F7"/>
<path d="M1075.2 294.467L1085.55 391.107C1072 397.08 1050.35 399.32 1031.15 399.533C1030.93 399.604 1030.72 399.64 1030.51 399.64C1029.23 399.64 1027.95 399.64 1026.67 399.64H1026.24C1007.89 399.64 992.748 397.933 990.508 396.44L997.228 297.56L996.054 282.733L995.201 271.96L994.241 260.013L1017.07 247.747L1028.91 241.453C1033.49 241.453 1049.6 241.347 1049.6 241.347C1050.13 241.453 1052.27 242.2 1055.25 243.373C1057.49 244.227 1060.16 245.187 1063.04 246.36C1065.71 247.32 1068.59 248.387 1071.36 249.453C1080.43 252.973 1088.85 256.173 1088.85 256.173L1075.2 294.467Z" fill="#2D3195"/>
<g style="mix-blend-mode:overlay" opacity="0.3">
<path d="M1076.91 310.36L1069.87 299.16L1078.72 327L1076.91 310.36Z" fill="#1A1A1A"/>
</g>
<g style="mix-blend-mode:overlay" opacity="0.4">
<path d="M1032 321.24L1031.15 399.533C1030.93 399.604 1030.72 399.64 1030.51 399.64L1029.23 321.987L1024.32 312.28L1030.29 319.64L1032 321.24Z" fill="white"/>
</g>
<path d="M1055.26 243.373L1025.07 313.88L1017.07 247.747L1028.91 241.453C1033.5 241.453 1049.6 241.347 1049.6 241.347C1050.14 241.453 1052.27 242.2 1055.26 243.373Z" fill="white"/>
<g style="mix-blend-mode:multiply" opacity="0.2">
<path d="M1055.26 243.373L1025.07 313.88L1017.07 247.747L1028.91 241.453C1033.5 241.453 1049.6 241.347 1049.6 241.347C1050.14 241.453 1052.27 242.2 1055.26 243.373Z" fill="#1A1A1A"/>
</g>
<path d="M1049.6 241.347C1048.85 244.653 1029.01 258.2 1029.01 258.2L1021.97 245.187L1022.19 244.227L1024.21 233.56C1024.57 232.209 1025.1 230.964 1025.81 229.827C1026.99 228.013 1028.48 226.413 1030.19 224.92C1037.65 218.307 1048.75 212.867 1048.75 212.867L1049.6 241.347Z" fill="#FFB295"/>
<path d="M1029.02 258.2L1040.32 270.893L1055.36 243.16L1049.6 239.32L1029.02 258.2Z" fill="white"/>
<path d="M1021.98 244.653L1029.02 258.2L1019.63 268.013L1017.07 247.533L1021.98 244.653Z" fill="white"/>
<g style="mix-blend-mode:overlay" opacity="0.4">
<path d="M1025.07 313.88L1010.88 284.013L1015.58 275.693L1008 264.813L1011.52 250.733L1017.07 247.533L1025.07 313.88Z" fill="white"/>
</g>
<g style="mix-blend-mode:overlay" opacity="0.4">
<path d="M1025.07 313.88L1049.39 286.36L1045.55 276.12L1061.87 264.814L1060.48 245.294L1055.26 243.374L1025.07 313.88Z" fill="white"/>
</g>
<path d="M1031.26 269.4L1034.35 264.6L1029.02 258.2L1023.58 263.96L1025.6 269.4L1021.02 279.96L1025.07 313.88L1037.34 285.4L1031.26 269.4Z" fill="#F25424"/>
<g style="mix-blend-mode:multiply" opacity="0.7">
<path d="M1049.17 223.64C1049.17 223.64 1040.32 243.053 1021.97 245.187L1024.21 233.56C1024.57 232.209 1025.1 230.965 1025.81 229.827C1027.63 228.12 1029.23 226.733 1029.97 226.093L1049.17 223.64Z" fill="#FFB295"/>
</g>
<path d="M1049.71 222.467C1045.01 229.507 1030.4 241.88 1020.37 241.133C1015.79 240.92 1006.93 233.773 1002.67 226.627C1001.71 224.813 1001.28 221.827 1001.17 218.413C1001.17 217.418 1001.17 216.387 1001.17 215.32C1001.28 212.76 1001.49 209.987 1001.81 207.32C1001.81 207.178 1001.81 207.036 1001.81 206.893C1002.77 199.32 1004.16 192.28 1004.69 190.787C1006.4 185.24 1015.68 181.827 1025.39 181.827C1044.59 181.613 1047.47 191.107 1047.47 191.107C1048.11 193.24 1049.17 193.773 1050.67 199.533C1053.01 208.813 1052.59 218.2 1049.71 222.467Z" fill="#FFB295"/>
<g style="mix-blend-mode:multiply" opacity="0.7">
<path d="M1030.4 217.773C1030.4 217.773 1032.96 219.587 1035.52 218.947C1037.97 218.413 1039.57 215.747 1039.57 215.747C1039.57 215.747 1037.01 214.04 1034.56 214.573C1032 215.107 1030.4 217.773 1030.4 217.773Z" fill="#FFB295"/>
</g>
<g style="mix-blend-mode:multiply" opacity="0.7">
<path d="M1006.19 217.774C1006.19 217.774 1004.16 219.16 1002.24 218.734C1001.81 218.662 1001.46 218.556 1001.17 218.414C1001.17 217.418 1001.17 216.387 1001.17 215.32C1001.71 215.214 1002.35 215.214 1002.88 215.32C1004.91 215.747 1006.19 217.774 1006.19 217.774Z" fill="#FFB295"/>
</g>
<path d="M1009.81 213.294C1009.81 215.427 1008.96 217.134 1008 217.24C1007.04 217.24 1006.29 215.427 1006.29 213.294C1006.29 211.16 1007.04 209.454 1008 209.454C1008.96 209.454 1009.81 211.16 1009.81 213.294Z" fill="#1A1A1A"/>
<path d="M1026.77 212.867C1026.77 215 1026.03 216.707 1025.07 216.707C1024.11 216.707 1023.36 215 1023.36 212.867C1023.36 210.734 1024.11 209.027 1025.07 209.027C1026.03 209.027 1026.77 210.734 1026.77 212.867Z" fill="#1A1A1A"/>
<g style="mix-blend-mode:multiply" opacity="0.7">
<path d="M1011.52 225.56C1013.01 225.987 1014.47 226.236 1015.89 226.307C1017.39 226.378 1018.84 226.307 1020.27 226.093C1021.69 225.809 1023.08 225.382 1024.43 224.813C1025.07 224.493 1025.71 224.067 1026.35 223.747C1026.67 223.533 1026.99 223.32 1027.2 223.107C1027.56 222.893 1027.88 222.68 1028.16 222.467C1027.95 222.751 1027.7 223.036 1027.41 223.32C1027.09 223.533 1026.88 223.853 1026.56 224.067L1025.71 224.813C1025.39 225.027 1025.07 225.133 1024.75 225.347C1024.11 225.773 1023.36 226.093 1022.61 226.413C1022.29 226.52 1021.87 226.627 1021.55 226.733C1021.19 226.805 1020.8 226.876 1020.37 226.947C1018.88 227.267 1017.39 227.267 1015.89 226.947C1014.29 226.733 1012.91 226.307 1011.52 225.56Z" fill="#FFB295"/>
</g>
<path d="M1022.19 206.04C1022.19 206.04 1029.55 202.414 1035.73 209.667C1035.73 209.667 1029.12 196.547 1022.19 206.04Z" fill="#1A1A1A"/>
<path d="M1010.88 205.827C1010.88 205.827 1006.19 203.267 1001.81 207.32C1001.81 207.178 1001.81 207.036 1001.81 206.894C1003.41 204.547 1007.57 199.96 1010.88 205.827Z" fill="#1A1A1A"/>
<g style="mix-blend-mode:multiply" opacity="0.7">
<path d="M1016.85 217.133C1016.36 216.991 1015.82 216.849 1015.25 216.707C1014.76 216.636 1014.26 216.6 1013.76 216.6C1013.48 216.529 1013.23 216.529 1013.01 216.6C1012.8 216.6 1012.48 216.707 1012.48 216.813C1012.37 217.027 1012.27 217.24 1012.27 217.453C1012.2 217.667 1012.2 217.916 1012.27 218.2C1012.37 219.16 1012.91 220.12 1013.55 220.867C1014.29 221.613 1015.36 221.933 1016.43 222.04C1015.93 222.111 1015.4 222.111 1014.83 222.04C1014.54 221.969 1014.26 221.862 1013.97 221.72C1013.69 221.578 1013.44 221.436 1013.23 221.293C1012.37 220.547 1011.73 219.48 1011.63 218.307C1011.56 218.022 1011.56 217.702 1011.63 217.347C1011.63 217.276 1011.63 217.205 1011.63 217.133C1011.63 217.062 1011.66 216.991 1011.73 216.92C1011.73 216.849 1011.77 216.778 1011.84 216.707C1011.84 216.636 1011.88 216.565 1011.95 216.493L1012.05 216.387C1012.13 216.316 1012.16 216.28 1012.16 216.28C1012.23 216.209 1012.27 216.173 1012.27 216.173C1012.34 216.173 1012.37 216.173 1012.37 216.173C1012.59 216.102 1012.77 216.067 1012.91 216.067C1013.19 215.996 1013.48 215.996 1013.76 216.067C1014.29 216.067 1014.83 216.28 1015.36 216.387C1015.93 216.6 1016.43 216.849 1016.85 217.133Z" fill="#FFB295"/>
</g>
<path d="M1047.79 218.52L1047.25 207.853C1047.25 207.853 1040.43 205.08 1041.07 196.44C1041.07 196.44 1015.47 204.44 996.801 195.053C997.441 188.867 1010.13 168.28 1026.88 167.533C1043.52 166.787 1044.91 177.347 1044.91 177.347C1044.91 177.347 1049.49 176.387 1052.8 178.84C1056 181.293 1055.47 201.453 1055.47 201.453C1055.47 201.453 1050.99 204.12 1050.35 208.067L1049.81 218.307L1047.79 218.52Z" fill="#1A1A1A"/>
<path d="M1049.81 208.707C1049.81 208.707 1052.16 200.707 1057.28 200.707C1062.29 200.6 1062.19 226.84 1049.92 216.92L1049.81 208.707Z" fill="#FFB295"/>
<g style="mix-blend-mode:multiply" opacity="0.7">
<path d="M1051.2 212.867C1051.41 212.867 1051.52 212.76 1051.52 212.653C1051.52 212.653 1051.95 210.733 1053.12 210.2C1053.62 209.916 1054.26 210.022 1055.04 210.52C1055.15 210.52 1055.36 210.52 1055.47 210.413C1055.57 210.2 1055.47 210.093 1055.36 209.987C1054.44 209.418 1053.58 209.276 1052.8 209.56C1052.66 209.702 1052.52 209.809 1052.37 209.88C1053.01 208.493 1054.08 207.533 1055.15 207.533C1055.72 207.604 1056.21 207.96 1056.64 208.6C1057.07 209.027 1057.17 209.56 1057.17 209.56C1057.28 209.773 1057.39 209.88 1057.6 209.773C1057.71 209.773 1057.81 209.56 1057.81 209.453C1057.71 209.347 1057.07 207 1055.15 207C1053.23 206.893 1051.31 209.453 1050.88 212.547C1050.88 212.76 1050.99 212.867 1051.2 212.867Z" fill="#FFB295"/>
</g>
<path d="M1096.43 408.28C1094.83 411.48 1090.88 419.8 1087.36 426.627C1084.91 431.32 1082.67 435.267 1081.6 436.12C1081.6 436.12 1080.43 440.067 1078.72 440.813C1078.19 441.133 1077.44 441.347 1076.69 441.347C1075.73 441.453 1074.88 441.24 1074.56 441.133C1074.35 441.027 1072.64 440.6 1072.64 440.6C1072.64 440.6 1074.35 436.333 1075.52 433.453C1076.8 430.467 1076.05 426.627 1076.37 423C1077.33 412.867 1091.52 408.813 1095.79 407.533C1096.21 407.32 1096.64 407.853 1096.43 408.28Z" fill="#FFB295"/>
<g style="mix-blend-mode:multiply" opacity="0.7">
<path d="M1089.6 414.68C1090.03 414.573 1090.45 415 1090.35 415.427C1089.6 417.347 1088.53 421.933 1087.36 426.627C1084.91 431.32 1082.67 435.267 1081.6 436.12C1081.6 436.12 1080.43 440.067 1078.72 440.813C1078.19 441.133 1077.44 441.347 1076.69 441.347C1077.97 438.253 1081.28 429.293 1081.49 422.68C1081.49 422.538 1081.53 422.431 1081.6 422.36C1085.12 416.493 1088.11 415 1089.6 414.68Z" fill="#FFA37E"/>
</g>
<path fill-rule="evenodd" clip-rule="evenodd" d="M1108.06 448.707H1069.02C1066.56 448.707 1064.54 446.68 1064.54 444.12V430.36C1064.54 427.8 1066.56 425.773 1069.02 425.773H1108.06C1110.62 425.773 1112.64 427.8 1112.64 430.36V444.12C1112.64 446.68 1110.62 448.707 1108.06 448.707ZM1069.02 430.253C1068.94 430.253 1068.91 430.289 1068.91 430.36V444.12C1068.91 444.191 1068.94 444.227 1069.02 444.227H1108.06C1108.13 444.227 1108.16 444.191 1108.16 444.12V430.36C1108.16 430.289 1108.13 430.253 1108.06 430.253H1069.02Z" fill="#1A1A1A"/>
<path d="M1148.8 524.973H1031.79V443.48H1143.36L1144.96 467.053L1145.6 477.827L1148.8 524.973Z" fill="#F25424"/>
<path d="M1148.8 524.973H1031.79V443.48H1143.36L1144.96 467.053L1145.6 477.827L1148.8 524.973Z" fill="#FBB03B"/>
<g style="mix-blend-mode:overlay" opacity="0.4">
<path d="M1145.6 477.827L1095.47 489.347L1033.07 471.96L1031.79 472.173V461.827L1144.96 467.053L1145.6 477.827Z" fill="#1A1A1A"/>
</g>
<path d="M1037.33 524.973H1020.27L1027.2 445.293L1027.31 443.48H1031.79L1031.89 445.293L1037.33 524.973Z" fill="#FBB03B"/>
<g style="mix-blend-mode:overlay" opacity="0.5">
<path d="M1037.33 524.973H1020.27L1027.2 445.293L1027.31 443.48H1031.79L1031.89 445.293L1037.33 524.973Z" fill="#1A1A1A"/>
</g>
<path d="M1020.27 524.973L1027.31 443.48H1033.07V444.973L1028.59 445.08L1021.87 524.973H1020.27Z" fill="#F25424"/>
<path d="M1096 485.293L1032.11 469.72L1030.29 443.48H1144.75L1146.88 473.773L1096 485.293Z" fill="#F25424"/>
<path d="M1099.31 490.52L1094.83 494.147L1090.35 490.52V476.547H1099.31V490.52Z" fill="white"/>
<path d="M1110.61 413.72C1110.83 413.933 1110.83 414.147 1110.72 414.36C1108.91 417.987 1108.8 428.12 1106.99 434.52C1106.35 436.653 1105.39 437.933 1104.32 438.787C1102.29 440.387 1099.95 440.173 1099.52 440.067C1099.45 440.067 1099.41 440.067 1099.41 440.067C1099.41 440.138 1099.38 440.173 1099.31 440.173C1098.81 440.742 1098.31 441.204 1097.81 441.56C1096 442.733 1094.4 441.987 1093.65 441.453C1093.33 441.24 1093.01 441.347 1092.8 441.56L1091.2 444.013C1089.81 446.253 1087.36 445.187 1086.29 444.547C1085.97 444.333 1085.65 444.44 1085.55 444.76L1085.23 445.507C1085.23 445.507 1084.37 449.453 1080.75 448.92C1076.91 448.28 1077.97 443.587 1077.97 443.587C1078.19 442.627 1082.03 423.533 1085.23 417.453C1088.53 411.267 1088.53 411.8 1094.93 407.96C1100.69 404.44 1109.01 412.12 1110.61 413.72Z" fill="#FFB295"/>
<g opacity="0.6">
<g style="mix-blend-mode:multiply">
<path d="M1099.52 440.067C1099.73 439.996 1099.98 439.818 1100.27 439.533C1100.41 439.391 1100.55 439.356 1100.69 439.427C1101.33 439.533 1102.61 439.64 1104.32 438.787C1102.29 440.387 1099.95 440.173 1099.52 440.067Z" fill="#E5B7AC"/>
</g>
<g style="mix-blend-mode:multiply" opacity="0.7">
<path d="M1089.07 439.107C1090.03 439.96 1092.91 441.987 1095.25 439.853C1095.47 439.64 1095.79 439.64 1096 439.747C1096.32 440.067 1096.96 440.387 1097.6 440.493C1098.13 440.6 1098.35 441.24 1097.81 441.56C1096 442.733 1094.4 441.987 1093.65 441.453C1093.33 441.24 1093.01 441.347 1092.8 441.56L1091.2 444.013C1089.81 446.253 1087.36 445.187 1086.29 444.547C1085.97 444.333 1085.65 444.44 1085.55 444.76C1085.87 443.8 1087.36 440.173 1088.32 439.213C1088.43 439 1088.75 439 1089.07 439.107Z" fill="#FFA37E"/>
</g>
</g>
<path d="M1087.36 404.227L1084.91 410.947C1084.91 410.947 1093.87 421.933 1110.83 420.12L1112.64 410.84L1087.36 404.227Z" fill="white"/>
<path d="M1088.85 256.173C1100.48 261.4 1133.65 331.373 1133.23 342.787C1132.69 354.2 1115.52 415.427 1115.52 415.427C1115.52 415.427 1094.61 414.253 1085.12 403.8L1096.43 343.213L1069.87 298.52L1088.85 256.173Z" fill="#2D3195"/>
<path d="M662.5 118V89.08H672.76C674.84 89.08 676.7 89.44 678.34 90.16C679.993 90.8667 681.293 91.9133 682.24 93.3C683.187 94.6867 683.66 96.3933 683.66 98.42C683.66 100.327 683.227 101.96 682.36 103.32C681.507 104.68 680.313 105.72 678.78 106.44C677.247 107.16 675.453 107.52 673.4 107.52H667.44V118H662.5ZM667.4 103.62H673.28C674.973 103.62 676.353 103.113 677.42 102.1C678.5 101.087 679.04 99.7667 679.04 98.14C679.04 96.4867 678.48 95.2067 677.36 94.3C676.24 93.38 674.833 92.92 673.14 92.92H667.4V103.62ZM687.101 89.08H692.021V113.8H705.081V118H687.081L687.101 89.08ZM707.413 118L717.813 89.08H723.073L733.453 118H728.573L725.993 110.74H714.953L712.313 118H707.413ZM716.073 106.42H724.793L720.453 93.82L716.073 106.42ZM746.957 88.68C749.077 88.68 750.957 89.1133 752.597 89.98C754.237 90.8333 755.557 91.9933 756.557 93.46C757.57 94.9267 758.17 96.56 758.357 98.36H753.217C753.017 97.2933 752.644 96.34 752.097 95.5C751.564 94.66 750.857 93.9933 749.977 93.5C749.097 93.0067 748.044 92.76 746.817 92.76C745.284 92.76 743.977 93.1267 742.897 93.86C741.83 94.58 741.01 95.7267 740.437 97.3C739.877 98.8733 739.597 100.913 739.597 103.42C739.597 107.22 740.224 109.987 741.477 111.72C742.73 113.453 744.51 114.32 746.817 114.32C748.044 114.32 749.097 114.053 749.977 113.52C750.857 112.973 751.564 112.253 752.097 111.36C752.644 110.453 753.017 109.467 753.217 108.4H758.357C758.197 109.707 757.864 110.96 757.357 112.16C756.864 113.36 756.164 114.433 755.257 115.38C754.35 116.313 753.21 117.053 751.837 117.6C750.477 118.133 748.85 118.4 746.957 118.4C744.304 118.4 742.024 117.793 740.117 116.58C738.224 115.353 736.764 113.62 735.737 111.38C734.724 109.127 734.217 106.453 734.217 103.36C734.217 100.28 734.724 97.6467 735.737 95.46C736.75 93.2733 738.204 91.6 740.097 90.44C742.004 89.2667 744.29 88.68 746.957 88.68ZM762.661 118V89.08H781.781L781.761 93.26H767.561V101.36H780.101V105.48H767.521V113.76L782.061 113.78V118H762.661ZM786.969 118V89.08H793.929L801.509 111.18L809.169 89.08H816.089V118H811.149V95.32L803.529 118H799.469L791.909 95.46V118H786.969ZM821.902 118V89.08H841.022L841.002 93.26H826.802V101.36H839.342V105.48H826.762V113.76L841.302 113.78V118H821.902ZM865.129 89.08H869.989V118H865.609L851.069 96.78V118H846.209V89.08H850.969L865.129 109.74V89.08ZM873.131 93.46V89.08H895.691V93.46H887.011V118H882.131V93.46H873.131ZM906.477 89.08C906.597 89.08 906.95 89.08 907.537 89.08C908.123 89.08 908.817 89.08 909.617 89.08C910.43 89.08 911.25 89.0867 912.077 89.1C912.917 89.1 913.643 89.1067 914.257 89.12C917.777 89.1867 920.637 89.7933 922.837 90.94C925.05 92.0733 926.67 93.6933 927.697 95.8C928.737 97.8933 929.257 100.42 929.257 103.38C929.257 106.473 928.703 109.107 927.597 111.28C926.503 113.453 924.823 115.12 922.557 116.28C920.303 117.427 917.437 118 913.957 118H906.477V89.08ZM911.417 93.1V113.98H914.037C916.023 113.98 917.777 113.64 919.297 112.96C920.817 112.267 922.003 111.147 922.857 109.6C923.723 108.053 924.157 105.987 924.157 103.4C924.157 100.893 923.757 98.8867 922.957 97.38C922.157 95.8733 921.01 94.7867 919.517 94.12C918.023 93.44 916.237 93.1 914.157 93.1H911.417ZM955.237 118H950.157L945.177 106.26H938.457V118H933.597V89.08H945.337C947.55 89.08 949.37 89.4267 950.797 90.12C952.237 90.8 953.304 91.7667 953.997 93.02C954.69 94.26 955.037 95.7133 955.037 97.38C955.037 98.9267 954.784 100.227 954.277 101.28C953.77 102.32 953.11 103.173 952.297 103.84C951.497 104.493 950.637 105.027 949.717 105.44L955.237 118ZM944.237 102.4C946.077 102.4 947.51 101.973 948.537 101.12C949.577 100.267 950.097 99.08 950.097 97.56C950.097 96.0667 949.617 94.9133 948.657 94.1C947.697 93.2867 946.43 92.88 944.857 92.88H938.457V102.4H944.237ZM959.858 89.08H964.718V118H959.858V89.08ZM993.593 89.08L983.493 118H977.853L967.873 89.08H972.573L980.673 112.38L988.893 89.08H993.593ZM996.716 118V89.08H1015.84L1015.82 93.26H1001.62V101.36H1014.16V105.48H1001.58V113.76L1016.12 113.78V118H996.716Z" fill="white"/>
</g>
<defs>
<clipPath id="clip0_273_2">
<rect width="1280" height="670" fill="white"/>
</clipPath>
</defs>
</svg>
